<svg xmlns="http://www.w3.org/2000/svg" width="190" height="190" viewBox="0 0 190 190" version="1.1"><path d="M 91.046 14.242 C 89.400 17.126, 87.793 20.668, 87.475 22.114 C 86.898 24.740, 86.890 24.736, 81.954 19.622 C 77.842 15.362, 76.834 14.752, 75.964 16 C 73.819 19.076, 75.618 25.035, 80.058 29.559 C 82.633 32.183, 84.049 34.429, 83.701 35.336 C 83.388 36.152, 80.740 37.529, 77.816 38.395 C 57.018 44.558, 42.977 63.047, 43.015 84.218 C 43.059 108.857, 54.926 126.800, 76 134.094 C 84.671 137.095, 103.420 137.373, 112.500 134.636 C 134.168 128.103, 146.940 109.475, 146.985 84.339 C 147.003 74.355, 144.703 66.405, 139.552 58.644 C 133.050 48.849, 122.293 41.041, 111.173 38.047 C 105.196 36.437, 104.938 34.658, 109.942 29.559 C 114.382 25.035, 116.181 19.076, 114.036 16 C 113.166 14.753, 112.152 15.368, 108.015 19.654 L 103.041 24.808 102.088 21.358 C 100.913 17.101, 96.252 9, 94.978 9 C 94.462 9, 92.693 11.359, 91.046 14.242 M 81.930 48.584 C 80.978 49.732, 80.905 50.626, 81.665 51.834 C 83.157 54.202, 86.146 54.521, 87.645 52.471 C 90.421 48.675, 84.946 44.951, 81.930 48.584 M 102.074 48.862 C 100.793 51.255, 102.898 54.362, 105.459 53.859 C 108.261 53.308, 109.654 50.493, 108.070 48.584 C 106.294 46.445, 103.293 46.584, 102.074 48.862 M 67.040 58.452 C 64.958 60.961, 66.195 63.500, 69.500 63.500 C 71.566 63.500, 72.578 62.952, 72.819 61.702 C 73.216 59.640, 71.352 57, 69.500 57 C 68.810 57, 67.703 57.653, 67.040 58.452 M 118.040 58.452 C 115.958 60.961, 117.195 63.500, 120.500 63.500 C 122.566 63.500, 123.578 62.952, 123.819 61.702 C 124.216 59.640, 122.352 57, 120.500 57 C 119.810 57, 118.703 57.653, 118.040 58.452 M 81.930 61.584 C 80.978 62.732, 80.905 63.626, 81.665 64.834 C 83.157 67.202, 86.146 67.521, 87.645 65.471 C 90.421 61.675, 84.946 57.951, 81.930 61.584 M 102.074 61.862 C 100.793 64.255, 102.898 67.362, 105.459 66.859 C 108.261 66.308, 109.654 63.493, 108.070 61.584 C 106.294 59.445, 103.293 59.584, 102.074 61.862 M 56.384 74.442 C 55.319 77.217, 56.456 79.500, 58.905 79.500 C 62.059 79.500, 63.846 76.724, 62.070 74.584 C 60.428 72.606, 57.120 72.523, 56.384 74.442 M 69.074 74.862 C 67.793 77.255, 69.898 80.362, 72.459 79.859 C 75.261 79.308, 76.654 76.493, 75.070 74.584 C 73.294 72.445, 70.293 72.584, 69.074 74.862 M 81.930 74.584 C 80.978 75.732, 80.905 76.626, 81.665 77.834 C 83.157 80.202, 86.146 80.521, 87.645 78.471 C 90.421 74.675, 84.946 70.951, 81.930 74.584 M 102.074 74.862 C 100.793 77.255, 102.898 80.362, 105.459 79.859 C 108.261 79.308, 109.654 76.493, 108.070 74.584 C 106.294 72.445, 103.293 72.584, 102.074 74.862 M 114.930 74.584 C 113.978 75.732, 113.905 76.626, 114.665 77.834 C 116.157 80.202, 119.146 80.521, 120.645 78.471 C 123.421 74.675, 117.946 70.951, 114.930 74.584 M 127.970 74.536 C 126.154 76.725, 127.908 79.500, 131.109 79.500 C 133.099 79.500, 133.500 78.997, 133.500 76.500 C 133.500 74.220, 132.999 73.428, 131.412 73.202 C 130.264 73.038, 128.715 73.638, 127.970 74.536 M 57.163 93.878 C 56.427 94.345, 55.977 95.800, 56.163 97.113 C 56.627 100.398, 61.519 101.090, 62.497 98.010 C 63.632 94.434, 60.326 91.873, 57.163 93.878 M 68.966 95.064 C 68.146 96.596, 68.168 97.498, 69.053 98.564 C 71.858 101.944, 77.081 98.888, 75.034 95.064 C 74.427 93.929, 73.061 93, 72 93 C 70.939 93, 69.573 93.929, 68.966 95.064 M 81.966 95.064 C 81.146 96.596, 81.168 97.498, 82.053 98.564 C 84.847 101.930, 89.995 98.529, 87.866 94.724 C 86.547 92.367, 83.309 92.554, 81.966 95.064 M 102.623 94.519 C 100.629 96.514, 102.085 100, 104.913 100 C 107.660 100, 109.628 97.220, 108.335 95.166 C 106.883 92.860, 104.547 92.596, 102.623 94.519 M 114.966 95.064 C 114.146 96.596, 114.168 97.498, 115.053 98.564 C 117.858 101.944, 123.081 98.888, 121.034 95.064 C 120.427 93.929, 119.061 93, 118 93 C 116.939 93, 115.573 93.929, 114.966 95.064 M 128.040 94.452 C 127.371 95.258, 127.132 96.841, 127.503 98.010 C 128.481 101.090, 133.373 100.398, 133.837 97.113 C 134.358 93.434, 130.395 91.615, 128.040 94.452 M 81.930 107.584 C 80.978 108.732, 80.905 109.626, 81.665 110.834 C 83.157 113.202, 86.146 113.521, 87.645 111.471 C 90.421 107.675, 84.946 103.951, 81.930 107.584 M 102.074 107.862 C 100.793 110.255, 102.898 113.362, 105.459 112.859 C 108.261 112.308, 109.654 109.493, 108.070 107.584 C 106.294 105.445, 103.293 105.584, 102.074 107.862 M 66.309 110.636 C 65.482 112.792, 67.259 115.500, 69.500 115.500 C 71.741 115.500, 73.518 112.792, 72.691 110.636 C 71.870 108.497, 67.130 108.497, 66.309 110.636 M 117.309 110.636 C 116.482 112.792, 118.259 115.500, 120.500 115.500 C 122.741 115.500, 124.518 112.792, 123.691 110.636 C 122.870 108.497, 118.130 108.497, 117.309 110.636 M 81.930 120.584 C 80.978 121.732, 80.905 122.626, 81.665 123.834 C 83.157 126.202, 86.146 126.521, 87.645 124.471 C 90.421 120.675, 84.946 116.951, 81.930 120.584 M 102.074 120.862 C 100.793 123.255, 102.898 126.362, 105.459 125.859 C 108.261 125.308, 109.654 122.493, 108.070 120.584 C 106.294 118.445, 103.293 118.584, 102.074 120.862 M 28.379 141.455 C 28.032 142.358, 27.952 146.614, 28.201 150.913 C 28.566 157.213, 29.237 159.773, 31.661 164.114 C 34.933 169.975, 41.528 175.219, 47.823 176.967 C 52.875 178.371, 136.738 178.348, 142.307 176.941 C 149.191 175.203, 155.347 169.994, 158.885 162.914 C 161.633 157.416, 162 155.686, 162 148.248 L 162 139.816 142.750 140.161 C 124.332 140.491, 123.253 140.622, 117.782 143.183 C 109.879 146.883, 102.332 154.186, 98.855 161.500 C 97.285 164.800, 96.001 168.287, 96.001 169.250 C 96 170.213, 95.550 171, 95 171 C 94.450 171, 94 170.213, 93.999 169.250 C 93.998 165.819, 88.200 155.428, 83.886 151.125 C 81.474 148.719, 76.575 145.344, 73 143.625 C 66.541 140.520, 66.380 140.498, 47.755 140.156 C 31.095 139.851, 28.939 139.996, 28.379 141.455" stroke="none" fill="#db2c4d" fill-rule="evenodd"/><path d="M -0 95.005 L -0 190.010 95.250 189.755 L 190.500 189.500 190.755 94.750 L 191.010 0 95.505 0 L 0 0 -0 95.005 M 0.480 95.500 C 0.480 147.750, 0.601 169.272, 0.750 143.326 C 0.898 117.380, 0.898 74.630, 0.750 48.326 C 0.601 22.022, 0.480 43.250, 0.480 95.500 M 91.046 14.242 C 89.400 17.126, 87.793 20.668, 87.475 22.114 C 86.898 24.740, 86.890 24.736, 81.954 19.622 C 77.842 15.362, 76.834 14.752, 75.964 16 C 73.819 19.076, 75.618 25.035, 80.058 29.559 C 82.633 32.183, 84.049 34.429, 83.701 35.336 C 83.388 36.152, 80.740 37.529, 77.816 38.395 C 57.018 44.558, 42.977 63.047, 43.015 84.218 C 43.059 108.857, 54.926 126.800, 76 134.094 C 84.671 137.095, 103.420 137.373, 112.500 134.636 C 134.168 128.103, 146.940 109.475, 146.985 84.339 C 147.003 74.355, 144.703 66.405, 139.552 58.644 C 133.050 48.849, 122.293 41.041, 111.173 38.047 C 105.196 36.437, 104.938 34.658, 109.942 29.559 C 114.382 25.035, 116.181 19.076, 114.036 16 C 113.166 14.753, 112.152 15.368, 108.015 19.654 L 103.041 24.808 102.088 21.358 C 100.913 17.101, 96.252 9, 94.978 9 C 94.462 9, 92.693 11.359, 91.046 14.242 M 81.930 48.584 C 80.978 49.732, 80.905 50.626, 81.665 51.834 C 83.157 54.202, 86.146 54.521, 87.645 52.471 C 90.421 48.675, 84.946 44.951, 81.930 48.584 M 102.074 48.862 C 100.793 51.255, 102.898 54.362, 105.459 53.859 C 108.261 53.308, 109.654 50.493, 108.070 48.584 C 106.294 46.445, 103.293 46.584, 102.074 48.862 M 67.040 58.452 C 64.958 60.961, 66.195 63.500, 69.500 63.500 C 71.566 63.500, 72.578 62.952, 72.819 61.702 C 73.216 59.640, 71.352 57, 69.500 57 C 68.810 57, 67.703 57.653, 67.040 58.452 M 118.040 58.452 C 115.958 60.961, 117.195 63.500, 120.500 63.500 C 122.566 63.500, 123.578 62.952, 123.819 61.702 C 124.216 59.640, 122.352 57, 120.500 57 C 119.810 57, 118.703 57.653, 118.040 58.452 M 81.930 61.584 C 80.978 62.732, 80.905 63.626, 81.665 64.834 C 83.157 67.202, 86.146 67.521, 87.645 65.471 C 90.421 61.675, 84.946 57.951, 81.930 61.584 M 102.074 61.862 C 100.793 64.255, 102.898 67.362, 105.459 66.859 C 108.261 66.308, 109.654 63.493, 108.070 61.584 C 106.294 59.445, 103.293 59.584, 102.074 61.862 M 56.384 74.442 C 55.319 77.217, 56.456 79.500, 58.905 79.500 C 62.059 79.500, 63.846 76.724, 62.070 74.584 C 60.428 72.606, 57.120 72.523, 56.384 74.442 M 69.074 74.862 C 67.793 77.255, 69.898 80.362, 72.459 79.859 C 75.261 79.308, 76.654 76.493, 75.070 74.584 C 73.294 72.445, 70.293 72.584, 69.074 74.862 M 81.930 74.584 C 80.978 75.732, 80.905 76.626, 81.665 77.834 C 83.157 80.202, 86.146 80.521, 87.645 78.471 C 90.421 74.675, 84.946 70.951, 81.930 74.584 M 102.074 74.862 C 100.793 77.255, 102.898 80.362, 105.459 79.859 C 108.261 79.308, 109.654 76.493, 108.070 74.584 C 106.294 72.445, 103.293 72.584, 102.074 74.862 M 114.930 74.584 C 113.978 75.732, 113.905 76.626, 114.665 77.834 C 116.157 80.202, 119.146 80.521, 120.645 78.471 C 123.421 74.675, 117.946 70.951, 114.930 74.584 M 127.970 74.536 C 126.154 76.725, 127.908 79.500, 131.109 79.500 C 133.099 79.500, 133.500 78.997, 133.500 76.500 C 133.500 74.220, 132.999 73.428, 131.412 73.202 C 130.264 73.038, 128.715 73.638, 127.970 74.536 M 57.163 93.878 C 56.427 94.345, 55.977 95.800, 56.163 97.113 C 56.627 100.398, 61.519 101.090, 62.497 98.010 C 63.632 94.434, 60.326 91.873, 57.163 93.878 M 68.966 95.064 C 68.146 96.596, 68.168 97.498, 69.053 98.564 C 71.858 101.944, 77.081 98.888, 75.034 95.064 C 74.427 93.929, 73.061 93, 72 93 C 70.939 93, 69.573 93.929, 68.966 95.064 M 81.966 95.064 C 81.146 96.596, 81.168 97.498, 82.053 98.564 C 84.847 101.930, 89.995 98.529, 87.866 94.724 C 86.547 92.367, 83.309 92.554, 81.966 95.064 M 102.623 94.519 C 100.629 96.514, 102.085 100, 104.913 100 C 107.660 100, 109.628 97.220, 108.335 95.166 C 106.883 92.860, 104.547 92.596, 102.623 94.519 M 114.966 95.064 C 114.146 96.596, 114.168 97.498, 115.053 98.564 C 117.858 101.944, 123.081 98.888, 121.034 95.064 C 120.427 93.929, 119.061 93, 118 93 C 116.939 93, 115.573 93.929, 114.966 95.064 M 128.040 94.452 C 127.371 95.258, 127.132 96.841, 127.503 98.010 C 128.481 101.090, 133.373 100.398, 133.837 97.113 C 134.358 93.434, 130.395 91.615, 128.040 94.452 M 81.930 107.584 C 80.978 108.732, 80.905 109.626, 81.665 110.834 C 83.157 113.202, 86.146 113.521, 87.645 111.471 C 90.421 107.675, 84.946 103.951, 81.930 107.584 M 102.074 107.862 C 100.793 110.255, 102.898 113.362, 105.459 112.859 C 108.261 112.308, 109.654 109.493, 108.070 107.584 C 106.294 105.445, 103.293 105.584, 102.074 107.862 M 66.309 110.636 C 65.482 112.792, 67.259 115.500, 69.500 115.500 C 71.741 115.500, 73.518 112.792, 72.691 110.636 C 71.870 108.497, 67.130 108.497, 66.309 110.636 M 117.309 110.636 C 116.482 112.792, 118.259 115.500, 120.500 115.500 C 122.741 115.500, 124.518 112.792, 123.691 110.636 C 122.870 108.497, 118.130 108.497, 117.309 110.636 M 81.930 120.584 C 80.978 121.732, 80.905 122.626, 81.665 123.834 C 83.157 126.202, 86.146 126.521, 87.645 124.471 C 90.421 120.675, 84.946 116.951, 81.930 120.584 M 102.074 120.862 C 100.793 123.255, 102.898 126.362, 105.459 125.859 C 108.261 125.308, 109.654 122.493, 108.070 120.584 C 106.294 118.445, 103.293 118.584, 102.074 120.862 M 28.379 141.455 C 28.032 142.358, 27.952 146.614, 28.201 150.913 C 28.566 157.213, 29.237 159.773, 31.661 164.114 C 34.933 169.975, 41.528 175.219, 47.823 176.967 C 52.875 178.371, 136.738 178.348, 142.307 176.941 C 149.191 175.203, 155.347 169.994, 158.885 162.914 C 161.633 157.416, 162 155.686, 162 148.248 L 162 139.816 142.750 140.161 C 124.332 140.491, 123.253 140.622, 117.782 143.183 C 109.879 146.883, 102.332 154.186, 98.855 161.500 C 97.285 164.800, 96.001 168.287, 96.001 169.250 C 96 170.213, 95.550 171, 95 171 C 94.450 171, 94 170.213, 93.999 169.250 C 93.998 165.819, 88.200 155.428, 83.886 151.125 C 81.474 148.719, 76.575 145.344, 73 143.625 C 66.541 140.520, 66.380 140.498, 47.755 140.156 C 31.095 139.851, 28.939 139.996, 28.379 141.455" stroke="none" fill="#fbfafa" fill-rule="evenodd"/></svg>