<svg xmlns="http://www.w3.org/2000/svg" width="163" height="185" viewBox="0 0 163 185" version="1.1"><path d="M 78.693 8.787 C 77.804 9.769, 76.136 12.699, 74.986 15.298 L 72.896 20.023 69.535 17.459 C 67.686 16.049, 65.924 14.244, 65.618 13.448 C 64.878 11.518, 62.367 11.602, 61.607 13.582 C 59.882 18.076, 61.016 21.951, 65.549 27.055 C 70.727 32.885, 70.515 33.941, 63.762 35.935 C 41.744 42.436, 26.552 64.255, 28.635 86.389 C 30.078 101.731, 34.887 112.726, 43.922 121.344 C 54.032 130.988, 65.130 134.959, 82.040 134.985 C 110.556 135.029, 129.229 119.336, 133.777 91.505 C 135.108 83.365, 135.170 80.615, 134.155 74.701 C 131.104 56.907, 118.974 43.072, 100.612 36.441 C 93.403 33.838, 92.303 31.476, 96.696 28.031 C 100.574 24.990, 101.923 22.221, 101.965 17.219 C 102.013 11.358, 100.185 11.050, 95.162 16.073 C 89.808 21.427, 89.827 22.160, 95.200 17.560 C 98.741 14.530, 99.538 14.209, 100.272 15.521 C 101.789 18.233, 99.885 23.270, 95.821 27.294 C 93.659 29.435, 92.030 31.917, 92.202 32.810 C 92.393 33.804, 95.389 35.494, 99.932 37.171 C 113.843 42.305, 123.152 50.689, 129.131 63.466 C 131.657 68.864, 132.349 71.823, 132.725 78.826 C 134.171 105.747, 119.834 127.238, 96.959 132.441 C 88.962 134.260, 75.360 134.472, 67.799 132.895 C 43.788 127.888, 28.708 106.208, 30.309 79 C 30.931 68.441, 33.072 62.699, 39.562 54.188 C 45.436 46.484, 54.706 39.791, 62.962 37.292 C 72.256 34.480, 73.105 32.697, 67.566 27.625 C 63.478 23.880, 61.689 19.692, 62.534 15.845 L 63.151 13.038 68.109 17.919 L 73.068 22.800 76.580 15.400 C 78.511 11.330, 80.663 8, 81.361 8 C 82.822 8, 86.201 13.765, 87.956 19.250 C 88.615 21.313, 89.570 23, 90.078 23 C 91.490 23, 91.269 22.268, 87.462 14.355 C 83.722 6.579, 81.797 5.356, 78.693 8.787 M 89 46 C 87.373 47.627, 87.171 48.450, 88.012 50.023 C 88.594 51.110, 89.617 51.993, 90.285 51.985 C 91.137 51.974, 91.098 51.714, 90.152 51.115 C 88.130 49.833, 89.201 46.546, 91.760 46.180 C 93.565 45.923, 94 46.344, 94 48.347 C 94 49.715, 93.438 51.060, 92.750 51.338 C 91.977 51.650, 92.142 51.872, 93.183 51.921 C 94.974 52.005, 96.545 48.691, 95.509 47.014 C 95.168 46.462, 94.024 45.548, 92.967 44.982 C 91.463 44.178, 90.601 44.399, 89 46 M 68.040 46.452 C 66.467 48.348, 67.661 52.022, 69.817 51.921 C 70.858 51.872, 71.023 51.650, 70.250 51.338 C 69.563 51.060, 69 49.715, 69 48.347 C 69 46.344, 69.435 45.923, 71.240 46.180 C 73.799 46.546, 74.870 49.833, 72.848 51.115 C 72.047 51.623, 71.957 51.976, 72.628 51.985 C 74.871 52.015, 76.214 49.269, 75.034 47.064 C 73.749 44.663, 69.811 44.318, 68.040 46.452 M 52.714 55.619 C 51.269 57.064, 52.054 60.958, 54 62 C 57.058 63.637, 60.201 61.572, 59.810 58.183 C 59.559 56.011, 58.922 55.443, 56.464 55.203 C 54.794 55.039, 53.107 55.227, 52.714 55.619 M 103.667 55.667 C 102.262 57.071, 103.084 60.975, 105 62 C 108.813 64.041, 112.019 60.820, 110.393 56.582 C 109.790 55.010, 104.978 54.356, 103.667 55.667 M 53.332 57.578 C 52.999 58.445, 53.463 59.892, 54.363 60.792 C 55.879 62.307, 56.121 62.307, 57.637 60.792 C 59.681 58.747, 58.743 56, 56 56 C 54.865 56, 53.665 56.710, 53.332 57.578 M 104.332 57.578 C 103.999 58.445, 104.463 59.892, 105.363 60.792 C 106.879 62.307, 107.121 62.307, 108.637 60.792 C 110.681 58.747, 109.743 56, 107 56 C 105.865 56, 104.665 56.710, 104.332 57.578 M 69.797 57.739 C 66.313 58.536, 66.844 65.168, 70.372 64.921 C 71.081 64.871, 71.035 64.655, 70.250 64.338 C 69.563 64.060, 69 62.783, 69 61.500 C 69 60.217, 69.563 58.970, 70.250 58.731 C 72.432 57.970, 74 59.138, 74 61.524 C 74 62.794, 73.438 64.060, 72.750 64.338 C 71.965 64.655, 71.919 64.871, 72.628 64.921 C 74.326 65.040, 76.299 62.222, 75.668 60.578 C 74.945 58.693, 71.953 57.246, 69.797 57.739 M 88.903 59.097 C 87.362 60.638, 87.176 61.460, 88.012 63.023 C 88.594 64.110, 89.508 65, 90.044 65 C 90.597 65, 90.499 64.171, 89.819 63.081 C 88.378 60.775, 90.250 57.775, 92.573 58.666 C 94.331 59.341, 94.465 63.646, 92.750 64.338 C 91.965 64.655, 91.919 64.871, 92.628 64.921 C 94.482 65.051, 96.209 62.234, 95.549 60.156 C 94.652 57.327, 91.219 56.781, 88.903 59.097 M 42.575 71.917 C 39.155 75.696, 45.178 80.422, 48.800 76.800 C 50.430 75.170, 50.308 73.450, 48.429 71.571 C 46.348 69.491, 44.682 69.589, 42.575 71.917 M 55.447 72.059 C 53.222 74.517, 54.412 77.308, 57.907 77.827 C 62.231 78.468, 64.426 74.569, 61.429 71.571 C 59.317 69.460, 57.678 69.593, 55.447 72.059 M 68.750 71.080 C 65.078 73.219, 67.685 78.481, 72.093 77.827 C 75.588 77.308, 76.778 74.517, 74.553 72.059 C 72.482 69.771, 71.332 69.577, 68.750 71.080 M 88.575 71.917 C 85.155 75.696, 91.178 80.422, 94.800 76.800 C 96.430 75.170, 96.308 73.450, 94.429 71.571 C 92.348 69.491, 90.682 69.589, 88.575 71.917 M 101.571 71.571 C 99.692 73.450, 99.570 75.170, 101.200 76.800 C 103.645 79.245, 109 77.577, 109 74.371 C 109 72.727, 106.193 70, 104.500 70 C 103.754 70, 102.436 70.707, 101.571 71.571 M 114.571 71.571 C 111.691 74.452, 113.399 78, 117.665 78 C 120.868 78, 122.317 74.898, 120.396 72.155 C 118.608 69.602, 116.729 69.414, 114.571 71.571 M 44.011 72.487 C 42.387 74.444, 43.435 77, 45.862 77 C 48.422 77, 49.295 74.438, 47.386 72.529 C 45.513 70.656, 45.530 70.656, 44.011 72.487 M 57.061 71.962 C 55.108 73.169, 56.261 76.463, 58.760 76.820 C 60.560 77.076, 61 76.655, 61 74.677 C 61 72.022, 59.091 70.707, 57.061 71.962 M 70.250 71.731 C 69.563 71.970, 69 73.285, 69 74.653 C 69 76.659, 69.434 77.077, 71.250 76.820 C 72.649 76.621, 73.615 75.697, 73.803 74.377 C 74.114 72.194, 72.458 70.960, 70.250 71.731 M 90.152 71.886 C 88.095 73.188, 89.207 76.455, 91.834 76.829 C 93.832 77.114, 94.104 76.783, 93.824 74.406 C 93.470 71.401, 92.246 70.561, 90.152 71.886 M 103.061 71.962 C 101.108 73.169, 102.261 76.463, 104.760 76.820 C 106.560 77.076, 107 76.655, 107 74.677 C 107 72.022, 105.091 70.707, 103.061 71.962 M 115.571 72.571 C 113.585 74.558, 114.706 77.184, 117.377 76.803 C 119.918 76.440, 120.835 72.534, 118.582 71.670 C 117.744 71.348, 116.389 71.754, 115.571 72.571 M 42.170 92.750 C 40.989 95.046, 41.677 96.762, 44.337 98.157 C 46.472 99.276, 46.476 99.264, 44.629 97.183 C 42.447 94.725, 43.095 92, 45.862 92 C 48.311 92, 49.420 94.786, 47.767 96.789 C 46.719 98.059, 46.760 98.239, 48 97.830 C 49.965 97.181, 50.482 94.285, 48.960 92.452 C 47.299 90.451, 43.262 90.628, 42.170 92.750 M 55.011 92.487 C 53.420 94.404, 54.281 96.575, 57.194 97.990 C 59.328 99.027, 59.363 99, 57.662 97.631 C 55.224 95.667, 55.914 92.586, 58.886 92.164 C 61.012 91.862, 61.206 92.141, 60.799 94.914 C 60.292 98.374, 61.512 99.112, 62.515 95.952 C 63.819 91.843, 57.837 89.081, 55.011 92.487 M 68.082 92.401 C 66.452 94.365, 67.539 97.646, 70.037 98.299 C 71.144 98.589, 72.992 98.006, 74.254 96.970 C 76.070 95.478, 76.289 94.778, 75.399 93.313 C 73.988 90.989, 69.697 90.455, 68.082 92.401 M 87.989 93.021 C 86.725 95.382, 87.281 96.588, 90.306 98.050 C 92.357 99.041, 92.380 99.014, 90.662 97.631 C 88.418 95.824, 88.841 92.654, 91.392 92.163 C 93.790 91.701, 95.138 93.873, 93.895 96.196 C 93.274 97.357, 93.275 98, 93.897 98 C 95.492 98, 96.256 94.013, 94.960 92.452 C 93.206 90.338, 89.252 90.661, 87.989 93.021 M 101.040 92.452 C 99.380 94.452, 100.605 97.668, 103.283 98.342 C 105.365 98.867, 105.388 98.817, 103.662 97.526 C 101.212 95.693, 101.922 92.585, 104.886 92.164 C 107.012 91.862, 107.206 92.141, 106.799 94.914 C 106.325 98.148, 107.354 99.127, 108.389 96.428 C 109.965 92.321, 103.880 89.030, 101.040 92.452 M 114.040 92.452 C 112.568 94.226, 113.014 97.172, 114.847 97.783 C 115.886 98.129, 115.959 97.793, 115.167 96.312 C 113.870 93.888, 115.162 91.692, 117.608 92.163 C 120.159 92.654, 120.582 95.824, 118.338 97.631 C 116.620 99.014, 116.643 99.041, 118.694 98.050 C 121.719 96.588, 122.275 95.382, 121.011 93.021 C 119.748 90.661, 115.794 90.338, 114.040 92.452 M 69 94.417 C 69 95.746, 69.563 97.030, 70.250 97.269 C 72.454 98.038, 74 96.853, 74 94.393 C 74 92.507, 73.470 92, 71.500 92 C 69.523 92, 69 92.506, 69 94.417 M 68.565 104.928 C 66.492 107.219, 67.291 111.040, 69.817 110.921 C 70.858 110.872, 71.023 110.650, 70.250 110.338 C 69.563 110.060, 69 108.746, 69 107.417 C 69 105.506, 69.523 105, 71.500 105 C 73.477 105, 74 105.506, 74 107.417 C 74 108.746, 73.539 110.062, 72.975 110.342 C 72.411 110.621, 72.492 110.744, 73.154 110.615 C 73.816 110.486, 74.839 109.592, 75.429 108.628 C 76.285 107.227, 76.026 106.486, 74.139 104.937 C 71.207 102.531, 70.735 102.531, 68.565 104.928 M 90.239 103.722 C 88.009 104.521, 86.722 107.960, 88.053 109.564 C 88.709 110.354, 89.695 111, 90.245 111 C 90.807 111, 90.704 110.348, 90.011 109.513 C 88.387 107.556, 89.435 105, 91.862 105 C 94.422 105, 95.295 107.562, 93.386 109.471 C 92.545 110.312, 92.284 111, 92.806 111 C 94.393 111, 96.259 108.117, 95.668 106.578 C 94.966 104.747, 91.892 103.130, 90.239 103.722 M 53.200 107.200 C 51.041 109.359, 51.761 112.902, 54.498 113.589 C 58.023 114.473, 60 113.447, 60 110.731 C 60 108.025, 58.288 106, 56 106 C 55.120 106, 53.860 106.540, 53.200 107.200 M 104.200 107.200 C 103.540 107.860, 103 109.155, 103 110.078 C 103 114.390, 110.228 115.422, 110.827 111.195 C 111.425 106.972, 107.060 104.340, 104.200 107.200 M 54.011 108.487 C 52.349 110.489, 53.456 113, 56 113 C 57.135 113, 58.324 112.319, 58.643 111.487 C 59.218 109.990, 57.457 107, 56 107 C 55.585 107, 54.689 107.669, 54.011 108.487 M 105.011 108.487 C 103.349 110.489, 104.456 113, 107 113 C 108.135 113, 109.324 112.319, 109.643 111.487 C 110.218 109.990, 108.457 107, 107 107 C 106.585 107, 105.689 107.669, 105.011 108.487 M 68.571 117.571 C 65.691 120.452, 67.399 124, 71.665 124 C 73.550 124, 76 121.534, 76 119.637 C 76 118.592, 72.793 116, 71.500 116 C 70.754 116, 69.436 116.707, 68.571 117.571 M 88.604 118.155 C 86.683 120.898, 88.132 124, 91.335 124 C 95.601 124, 97.309 120.452, 94.429 117.571 C 92.271 115.414, 90.392 115.602, 88.604 118.155 M 70.250 117.731 C 69.563 117.970, 69 119.285, 69 120.653 C 69 122.659, 69.434 123.077, 71.250 122.820 C 72.649 122.621, 73.615 121.697, 73.803 120.377 C 74.114 118.194, 72.458 116.960, 70.250 117.731 M 90.061 117.962 C 89.369 118.390, 88.965 119.581, 89.163 120.608 C 89.590 122.823, 92.928 123.735, 94.038 121.939 C 95.633 119.358, 92.642 116.367, 90.061 117.962 M 15.250 137.662 C 14.384 138.012, 14 140.846, 14 146.887 C 14 154.245, 14.401 156.412, 16.567 160.759 C 19.532 166.709, 24.549 171.470, 30.736 174.208 C 34.787 176, 38.133 176.139, 81.287 176.313 C 126.369 176.495, 127.611 176.448, 132.051 174.394 C 138.524 171.399, 143.465 166.715, 146.433 160.759 C 148.597 156.415, 149 154.243, 149 146.911 C 149 139.903, 148.693 138.096, 147.418 137.607 C 146.548 137.273, 139.236 137.095, 131.168 137.210 L 116.500 137.421 132 137.960 L 147.500 138.500 147.798 145.348 C 148.187 154.290, 145.933 161.028, 140.613 166.822 C 132.917 175.204, 134.715 174.954, 82 174.968 L 35.500 174.980 30.500 172.634 C 20.057 167.733, 15.568 160.048, 15.527 147 L 15.500 138.500 31 137.960 L 46.500 137.421 31.500 137.289 C 23.250 137.217, 15.938 137.385, 15.250 137.662 M 52.770 139.466 C 59.954 141.515, 63.447 143.450, 68.685 148.277 C 73.685 152.886, 77.649 159.095, 79.420 165.094 C 80.906 170.126, 82.072 170.187, 83.532 165.308 C 85.581 158.455, 88.813 153.353, 94.138 148.566 C 100.216 143.101, 102.991 141.532, 110.230 139.464 C 114.860 138.142, 115.017 138.019, 111.525 138.453 C 100.799 139.787, 88.414 149.638, 83.963 160.376 L 81.738 165.745 78.359 158.990 C 72.981 148.241, 62.033 139.787, 51.833 138.506 C 47.558 137.970, 47.570 137.982, 52.770 139.466" stroke="none" fill="#e07d91" fill-rule="evenodd"/><path d="M 76.580 15.400 L 73.068 22.800 68.109 17.919 L 63.151 13.038 62.534 15.845 C 61.689 19.692, 63.478 23.880, 67.566 27.625 C 73.105 32.697, 72.256 34.480, 62.962 37.292 C 54.706 39.791, 45.436 46.484, 39.562 54.188 C 33.072 62.699, 30.931 68.441, 30.309 79 C 28.708 106.208, 43.788 127.888, 67.799 132.895 C 75.360 134.472, 88.962 134.260, 96.959 132.441 C 119.834 127.238, 134.171 105.747, 132.725 78.826 C 131.704 59.805, 119.601 44.431, 99.932 37.171 C 95.389 35.494, 92.393 33.804, 92.202 32.810 C 92.030 31.917, 93.659 29.435, 95.821 27.294 C 99.941 23.215, 101.786 18.227, 100.214 15.418 C 99.415 13.991, 98.614 14.404, 94.464 18.380 C 91.812 20.921, 89.533 23, 89.399 23 C 89.265 23, 88.615 21.313, 87.956 19.250 C 86.201 13.765, 82.822 8, 81.361 8 C 80.663 8, 78.511 11.330, 76.580 15.400 M 89 46 C 86.236 48.764, 87.836 52, 91.968 52 C 96.654 52, 97.322 47.313, 92.967 44.982 C 91.463 44.178, 90.601 44.399, 89 46 M 68.040 46.452 C 66.063 48.833, 67.722 52, 70.945 52 C 74.694 52, 76.506 49.813, 75.034 47.064 C 73.749 44.663, 69.811 44.318, 68.040 46.452 M 52.714 55.619 C 51.269 57.064, 52.054 60.958, 54 62 C 57.058 63.637, 60.201 61.572, 59.810 58.183 C 59.559 56.011, 58.922 55.443, 56.464 55.203 C 54.794 55.039, 53.107 55.227, 52.714 55.619 M 103.667 55.667 C 102.262 57.071, 103.084 60.975, 105 62 C 108.813 64.041, 112.019 60.820, 110.393 56.582 C 109.790 55.010, 104.978 54.356, 103.667 55.667 M 69.797 57.739 C 67.560 58.251, 66.514 61.710, 68.040 63.548 C 70.596 66.628, 77.029 64.124, 75.668 60.578 C 74.945 58.693, 71.953 57.246, 69.797 57.739 M 88.903 59.097 C 87.362 60.638, 87.176 61.460, 88.012 63.023 C 90.146 67.009, 96.908 64.437, 95.549 60.156 C 94.652 57.327, 91.219 56.781, 88.903 59.097 M 42.575 71.917 C 39.155 75.696, 45.178 80.422, 48.800 76.800 C 50.430 75.170, 50.308 73.450, 48.429 71.571 C 46.348 69.491, 44.682 69.589, 42.575 71.917 M 55.447 72.059 C 53.222 74.517, 54.412 77.308, 57.907 77.827 C 62.231 78.468, 64.426 74.569, 61.429 71.571 C 59.317 69.460, 57.678 69.593, 55.447 72.059 M 68.750 71.080 C 65.078 73.219, 67.685 78.481, 72.093 77.827 C 75.588 77.308, 76.778 74.517, 74.553 72.059 C 72.482 69.771, 71.332 69.577, 68.750 71.080 M 88.575 71.917 C 85.155 75.696, 91.178 80.422, 94.800 76.800 C 96.430 75.170, 96.308 73.450, 94.429 71.571 C 92.348 69.491, 90.682 69.589, 88.575 71.917 M 101.571 71.571 C 99.692 73.450, 99.570 75.170, 101.200 76.800 C 103.645 79.245, 109 77.577, 109 74.371 C 109 72.727, 106.193 70, 104.500 70 C 103.754 70, 102.436 70.707, 101.571 71.571 M 114.571 71.571 C 111.691 74.452, 113.399 78, 117.665 78 C 120.868 78, 122.317 74.898, 120.396 72.155 C 118.608 69.602, 116.729 69.414, 114.571 71.571 M 42.012 92.977 C 41.173 94.545, 41.368 95.368, 42.954 96.954 C 46.546 100.546, 52.176 96.327, 48.960 92.452 C 47.223 90.359, 43.253 90.659, 42.012 92.977 M 55.200 92.200 C 53.438 93.962, 53.730 95.698, 56.065 97.333 C 58.628 99.128, 61.733 98.415, 62.549 95.844 C 63.769 92.003, 58.172 89.228, 55.200 92.200 M 68.082 92.401 C 66.452 94.365, 67.539 97.646, 70.037 98.299 C 71.144 98.589, 72.992 98.006, 74.254 96.970 C 76.070 95.478, 76.289 94.778, 75.399 93.313 C 73.988 90.989, 69.697 90.455, 68.082 92.401 M 87.902 93.183 C 86.913 95.030, 87.061 95.631, 88.863 97.090 C 91.407 99.150, 94.695 98.537, 95.549 95.844 C 96.960 91.400, 90.129 89.023, 87.902 93.183 M 101.040 92.452 C 99.512 94.294, 100.564 97.757, 102.797 98.237 C 107.203 99.185, 109.852 96.461, 107.961 92.928 C 106.746 90.656, 102.758 90.382, 101.040 92.452 M 114.040 92.452 C 110.890 96.247, 116.149 100.319, 120.084 97.133 C 121.936 95.633, 122.089 95.036, 121.098 93.183 C 119.752 90.668, 115.855 90.264, 114.040 92.452 M 68.565 104.928 C 65.860 107.917, 67.349 111.196, 71.235 110.807 C 72.920 110.638, 74.794 109.684, 75.399 108.687 C 76.294 107.215, 76.057 106.511, 74.139 104.937 C 71.207 102.531, 70.735 102.531, 68.565 104.928 M 90.239 103.722 C 88.009 104.521, 86.722 107.960, 88.053 109.564 C 90.599 112.631, 97.024 110.112, 95.668 106.578 C 94.966 104.747, 91.892 103.130, 90.239 103.722 M 53.200 107.200 C 51.041 109.359, 51.761 112.902, 54.498 113.589 C 58.023 114.473, 60 113.447, 60 110.731 C 60 108.025, 58.288 106, 56 106 C 55.120 106, 53.860 106.540, 53.200 107.200 M 104.200 107.200 C 103.540 107.860, 103 109.155, 103 110.078 C 103 114.390, 110.228 115.422, 110.827 111.195 C 111.425 106.972, 107.060 104.340, 104.200 107.200 M 68.571 117.571 C 65.691 120.452, 67.399 124, 71.665 124 C 73.550 124, 76 121.534, 76 119.637 C 76 118.592, 72.793 116, 71.500 116 C 70.754 116, 69.436 116.707, 68.571 117.571 M 88.604 118.155 C 86.683 120.898, 88.132 124, 91.335 124 C 95.601 124, 97.309 120.452, 94.429 117.571 C 92.271 115.414, 90.392 115.602, 88.604 118.155 M 15.378 139.458 C 15.029 140.366, 14.955 144.394, 15.212 148.410 C 15.985 160.449, 20.803 168.083, 30.500 172.634 L 35.500 174.980 82 174.968 C 134.715 174.954, 132.917 175.204, 140.613 166.822 C 145.933 161.028, 148.187 154.290, 147.798 145.348 L 147.500 138.500 129.500 138.550 C 113.386 138.594, 110.919 138.829, 105.955 140.795 C 95.728 144.844, 86.700 154.713, 83.532 165.308 C 82.072 170.187, 80.906 170.126, 79.420 165.094 C 76.398 154.860, 67.152 144.778, 57.202 140.866 C 52.249 138.920, 49.168 138.571, 33.756 138.215 C 17.946 137.851, 15.943 137.986, 15.378 139.458" stroke="none" fill="#da2d50" fill-rule="evenodd"/></svg>