<?xml version="1.0" standalone="no"?>
<!DOCTYPE svg PUBLIC "-//W3C//DTD SVG 20010904//EN"
 "http://www.w3.org/TR/2001/REC-SVG-20010904/DTD/svg10.dtd">
<svg version="1.0" xmlns="http://www.w3.org/2000/svg"
 width="112.000000pt" height="112.000000pt" viewBox="0 0 112.000000 112.000000"
 preserveAspectRatio="xMidYMid meet">

<g transform="translate(0.000000,112.000000) scale(0.100000,-0.100000)"
fill="#000000" stroke="none">
<path d="M516 1073 c-3 -10 -8 -36 -12 -58 -4 -22 -11 -49 -17 -60 -6 -11 -12
-31 -12 -45 -1 -14 -3 -32 -3 -41 -1 -9 -22 -22 -53 -31 -27 -9 -49 -13 -47
-10 32 72 40 104 28 112 -8 5 -17 7 -22 4 -13 -8 -57 -102 -51 -108 4 -3 1 -6
-5 -6 -6 0 -16 -15 -21 -32 -5 -18 -10 -25 -10 -15 -1 9 -6 17 -12 17 -6 0 -9
9 -6 19 3 13 0 18 -8 15 -23 -9 -34 -78 -34 -209 l1 -130 -47 -7 c-79 -11
-115 -48 -115 -118 0 -52 62 -66 151 -35 48 17 54 15 62 -24 9 -45 84 -150
138 -196 64 -54 143 -73 246 -58 90 13 178 54 198 92 13 26 31 140 37 234 2
32 7 41 33 52 40 17 77 53 93 88 16 37 15 48 -9 76 l-19 24 -66 -18 c-36 -10
-66 -16 -68 -14 -6 8 -46 90 -46 94 0 3 3 4 8 4 20 -3 32 2 32 15 0 7 18 31
39 52 22 21 38 42 35 46 -13 21 -51 5 -90 -38 l-42 -45 -28 27 c-16 14 -39 33
-51 41 -28 19 -28 22 1 86 37 81 38 87 17 87 -22 0 -55 -51 -66 -99 -5 -26
-11 -32 -28 -29 -20 3 -22 8 -19 63 1 33 5 70 8 83 4 20 1 23 -18 20 -24 -3
-36 -36 -39 -110 -2 -36 -4 -38 -36 -38 -18 0 -33 4 -33 8 0 5 8 42 19 83 30
120 32 136 15 143 -22 8 -22 8 -28 -11z m99 -257 c79 -33 153 -118 188 -216
48 -136 60 -337 24 -423 -24 -55 -91 -89 -187 -95 -67 -4 -85 -1 -132 20 -154
71 -264 325 -224 518 9 46 32 94 51 110 8 7 15 18 15 24 1 30 113 74 193 75
21 1 53 -5 72 -13z m383 -262 c4 -28 -58 -94 -87 -94 -23 0 -27 6 -34 61 -5
34 -4 36 31 46 56 16 86 12 90 -13z m-767 -97 c9 -7 15 -26 15 -47 -1 -31 -5
-36 -36 -47 -19 -6 -50 -12 -67 -12 -28 -1 -33 2 -33 24 0 70 72 120 121 82z"/>
<path d="M378 614 c-9 -8 2 -35 23 -57 17 -18 18 -18 62 1 24 11 48 25 51 31
10 16 -20 14 -47 -3 -17 -12 -25 -12 -38 -3 -9 7 -16 17 -17 22 -1 12 -25 18
-34 9z"/>
<path d="M610 597 c0 -23 35 -47 66 -47 16 1 42 12 59 25 25 21 27 25 12 31
-12 4 -25 -1 -38 -15 -24 -26 -31 -26 -54 -1 -21 23 -45 26 -45 7z"/>
<path d="M627 453 c-11 -11 -8 -71 4 -79 16 -9 26 6 34 49 6 32 5 37 -12 37
-11 0 -23 -3 -26 -7z"/>
<path d="M445 366 c-17 -12 -17 -14 -2 -37 10 -13 17 -31 17 -41 0 -10 4 -18
9 -18 5 0 13 -9 16 -20 8 -26 31 -38 89 -45 55 -8 120 12 174 53 54 41 82 112
44 112 -13 0 -22 -12 -31 -40 -15 -51 -66 -91 -124 -97 -65 -8 -101 15 -137
87 -17 33 -32 60 -33 60 -2 0 -12 -6 -22 -14z"/>
<path d="M811 871 c-23 -31 -46 -62 -52 -69 -13 -15 5 -42 27 -42 14 0 18 12
15 38 -1 6 2 12 8 12 8 0 81 93 81 104 0 2 -9 6 -19 9 -15 3 -29 -9 -60 -52z"/>
</g>
</svg>
