<svg xmlns="http://www.w3.org/2000/svg" width="225" height="225" viewBox="0 0 225 225" version="1.1"><path d="M 108.776 4.733 C 111.128 4.945, 114.728 4.942, 116.776 4.727 C 118.824 4.512, 116.900 4.339, 112.500 4.343 C 108.100 4.346, 106.424 4.522, 108.776 4.733 M 96.269 5.693 C 97.242 5.947, 98.592 5.930, 99.269 5.656 C 99.946 5.382, 99.150 5.175, 97.500 5.195 C 95.850 5.215, 95.296 5.439, 96.269 5.693 M 126.750 5.662 C 127.438 5.940, 128.563 5.940, 129.250 5.662 C 129.938 5.385, 129.375 5.158, 128 5.158 C 126.625 5.158, 126.063 5.385, 126.750 5.662 M 90.813 6.683 C 91.534 6.972, 92.397 6.936, 92.729 6.604 C 93.061 6.272, 92.471 6.036, 91.417 6.079 C 90.252 6.127, 90.015 6.364, 90.813 6.683 M 132.813 6.683 C 133.534 6.972, 134.397 6.936, 134.729 6.604 C 135.061 6.272, 134.471 6.036, 133.417 6.079 C 132.252 6.127, 132.015 6.364, 132.813 6.683 M 107.784 11.738 C 110.689 11.941, 115.189 11.939, 117.784 11.734 C 120.378 11.528, 118 11.363, 112.500 11.365 C 107 11.368, 104.878 11.536, 107.784 11.738 M 96.813 12.683 C 97.534 12.972, 98.397 12.936, 98.729 12.604 C 99.061 12.272, 98.471 12.036, 97.417 12.079 C 96.252 12.127, 96.015 12.364, 96.813 12.683 M 126.750 12.662 C 127.438 12.940, 128.563 12.940, 129.250 12.662 C 129.938 12.385, 129.375 12.158, 128 12.158 C 126.625 12.158, 126.063 12.385, 126.750 12.662 M 90.813 13.683 C 91.534 13.972, 92.397 13.936, 92.729 13.604 C 93.061 13.272, 92.471 13.036, 91.417 13.079 C 90.252 13.127, 90.015 13.364, 90.813 13.683 M 178 26.378 C 178 26.585, 178.787 27.373, 179.750 28.128 C 181.336 29.371, 181.371 29.336, 180.128 27.750 C 178.821 26.084, 178 25.555, 178 26.378 M 43.872 28.750 C 42.629 30.336, 42.664 30.371, 44.250 29.128 C 45.212 28.373, 46 27.585, 46 27.378 C 46 26.555, 45.179 27.084, 43.872 28.750 M 189 36.500 C 192.543 40.075, 195.667 43, 195.942 43 C 196.217 43, 193.543 40.075, 190 36.500 C 186.457 32.925, 183.333 30, 183.058 30 C 182.783 30, 185.457 32.925, 189 36.500 M 35.453 36.250 L 31.500 40.500 35.750 36.547 C 39.702 32.871, 40.460 32, 39.703 32 C 39.540 32, 37.627 33.913, 35.453 36.250 M 39.971 41.750 L 33.500 48.500 40.250 42.029 C 46.520 36.018, 47.457 35, 46.721 35 C 46.568 35, 43.530 38.038, 39.971 41.750 M 27.872 44.750 C 26.629 46.336, 26.664 46.371, 28.250 45.128 C 29.212 44.373, 30 43.585, 30 43.378 C 30 42.555, 29.179 43.084, 27.872 44.750 M 197 45.378 C 197 45.585, 197.787 46.373, 198.750 47.128 C 200.336 48.371, 200.371 48.336, 199.128 46.750 C 197.821 45.084, 197 44.555, 197 45.378 M 189 46.378 C 189 46.585, 189.787 47.373, 190.750 48.128 C 192.336 49.371, 192.371 49.336, 191.128 47.750 C 189.821 46.084, 189 45.555, 189 46.378 M 23.872 49.750 C 22.629 51.336, 22.664 51.371, 24.250 50.128 C 25.916 48.821, 26.445 48, 25.622 48 C 25.415 48, 24.627 48.788, 23.872 49.750 M 19 57 C 18.411 58.100, 18.155 59, 18.430 59 C 18.705 59, 19.411 58.100, 20 57 C 20.589 55.900, 20.845 55, 20.570 55 C 20.295 55, 19.589 55.900, 19 57 M 208 62 C 208.589 63.100, 209.295 64, 209.570 64 C 209.845 64, 209.589 63.100, 209 62 C 208.411 60.900, 207.705 60, 207.430 60 C 207.155 60, 207.411 60.900, 208 62 M 172.667 87.667 C 171.680 88.653, 171.857 93, 172.883 93 C 173.665 93, 174.949 89.793, 174.986 87.750 C 175.003 86.820, 173.565 86.769, 172.667 87.667 M 218.079 88.583 C 218.127 89.748, 218.364 89.985, 218.683 89.188 C 218.972 88.466, 218.936 87.603, 218.604 87.271 C 218.272 86.939, 218.036 87.529, 218.079 88.583 M 6.079 89.583 C 6.127 90.748, 6.364 90.985, 6.683 90.188 C 6.972 89.466, 6.936 88.603, 6.604 88.271 C 6.272 87.939, 6.036 88.529, 6.079 89.583 M 13.079 89.583 C 13.127 90.748, 13.364 90.985, 13.683 90.188 C 13.972 89.466, 13.936 88.603, 13.604 88.271 C 13.272 87.939, 13.036 88.529, 13.079 89.583 M 162 89.309 C 162 91.243, 164.718 94.616, 165.581 93.753 C 166.525 92.808, 164.386 88, 163.021 88 C 162.460 88, 162 88.589, 162 89.309 M 219.079 92.583 C 219.127 93.748, 219.364 93.985, 219.683 93.188 C 219.972 92.466, 219.936 91.603, 219.604 91.271 C 219.272 90.939, 219.036 91.529, 219.079 92.583 M 180.160 93.240 C 178.754 94.646, 178.631 97, 179.965 97 C 181.311 97, 183.192 93.236, 182.163 92.601 C 181.699 92.314, 180.798 92.602, 180.160 93.240 M 5.079 94.583 C 5.127 95.748, 5.364 95.985, 5.683 95.188 C 5.972 94.466, 5.936 93.603, 5.604 93.271 C 5.272 92.939, 5.036 93.529, 5.079 94.583 M 12.079 94.583 C 12.127 95.748, 12.364 95.985, 12.683 95.188 C 12.972 94.466, 12.936 93.603, 12.604 93.271 C 12.272 92.939, 12.036 93.529, 12.079 94.583 M 152 94.885 C 152 95.729, 156.343 99, 157.465 99 C 158.855 99, 157.779 95.952, 156.066 95.035 C 153.695 93.766, 152 93.704, 152 94.885 M 165.035 95.315 C 157.171 98.004, 154.228 109.382, 159.923 115.077 C 166.531 121.685, 180 116.397, 180 107.194 C 180 105.928, 181.031 104.989, 183.075 104.395 C 184.767 103.903, 186.096 103.050, 186.030 102.500 C 185.888 101.326, 182.020 101.769, 180.331 103.153 C 179.554 103.790, 178.883 103.638, 178.331 102.701 C 175.782 98.376, 168.121 97.760, 165.073 101.635 C 160.077 107.986, 165.243 115.616, 172.066 111.965 C 175.393 110.184, 173.993 104, 170.262 104 C 169.456 104, 169.039 104.894, 169.212 106.250 C 169.588 109.189, 167.606 109.763, 167.155 106.846 C 166.656 103.614, 169.421 101.902, 173.081 103.178 C 177.692 104.786, 177.011 110.909, 171.928 113.537 C 167.845 115.649, 165.258 115.349, 162.336 112.427 C 160.212 110.303, 159.863 109.229, 160.341 106.283 C 161.281 100.494, 164.392 98, 170.674 98 C 178.075 98, 177.753 96.323, 170 94.486 C 169.175 94.290, 166.941 94.664, 165.035 95.315 M 213.158 99 C 213.158 100.375, 213.385 100.938, 213.662 100.250 C 213.940 99.563, 213.940 98.438, 213.662 97.750 C 213.385 97.063, 213.158 97.625, 213.158 99 M 220.195 99.500 C 220.215 101.150, 220.439 101.704, 220.693 100.731 C 220.947 99.758, 220.930 98.408, 220.656 97.731 C 220.382 97.054, 220.175 97.850, 220.195 99.500 M 44.405 100.250 L 42.500 102.500 44.750 100.595 C 45.987 99.547, 47 98.535, 47 98.345 C 47 97.545, 46.195 98.136, 44.405 100.250 M 49.731 100.080 C 50.085 101.432, 50.538 101.886, 50.788 101.137 C 51.028 100.415, 50.750 99.350, 50.168 98.768 C 49.426 98.026, 49.296 98.417, 49.731 100.080 M 4.195 101.500 C 4.215 103.150, 4.439 103.704, 4.693 102.731 C 4.947 101.758, 4.930 100.408, 4.656 99.731 C 4.382 99.054, 4.175 99.850, 4.195 101.500 M 11.158 101 C 11.158 102.375, 11.385 102.938, 11.662 102.250 C 11.940 101.563, 11.940 100.438, 11.662 99.750 C 11.385 99.063, 11.158 99.625, 11.158 101 M 98.345 101.543 C 98.019 102.392, 97.976 103.310, 98.249 103.583 C 98.523 103.856, 98.986 103.161, 99.279 102.040 C 99.903 99.657, 99.210 99.289, 98.345 101.543 M 105.079 101.583 C 105.127 102.748, 105.364 102.985, 105.683 102.188 C 105.972 101.466, 105.936 100.603, 105.604 100.271 C 105.272 99.939, 105.036 100.529, 105.079 101.583 M 122.250 101.689 C 123.213 101.941, 124.787 101.941, 125.750 101.689 C 126.713 101.438, 125.925 101.232, 124 101.232 C 122.075 101.232, 121.287 101.438, 122.250 101.689 M 149.244 102.250 C 149.881 104.191, 155 104.472, 155 102.566 C 155 101.483, 154.049 101, 151.917 101 C 149.898 101, 148.975 101.432, 149.244 102.250 M 61.600 102.674 C 62.205 103.128, 62.985 104.175, 63.332 105 C 63.777 106.054, 63.896 105.930, 63.732 104.583 C 63.605 103.528, 62.825 102.482, 62 102.257 C 61.035 101.994, 60.893 102.143, 61.600 102.674 M 57.405 105.250 L 55.500 107.500 57.750 105.595 C 58.987 104.547, 60 103.535, 60 103.345 C 60 102.545, 59.195 103.136, 57.405 105.250 M 95.158 105 C 95.158 106.375, 95.385 106.938, 95.662 106.250 C 95.940 105.563, 95.940 104.438, 95.662 103.750 C 95.385 103.063, 95.158 103.625, 95.158 105 M 79 104.393 C 79 104.609, 79.698 105.054, 80.552 105.382 C 81.442 105.723, 81.843 105.555, 81.493 104.989 C 80.906 104.038, 79 103.583, 79 104.393 M 82.114 107.016 C 80.252 108.657, 79.156 110, 79.677 110 C 80.199 110, 81.919 108.650, 83.500 107 C 87.176 103.163, 86.476 103.171, 82.114 107.016 M 45.079 106.583 C 45.127 107.748, 45.364 107.985, 45.683 107.188 C 45.972 106.466, 45.936 105.603, 45.604 105.271 C 45.272 104.939, 45.036 105.529, 45.079 106.583 M 65.405 107.250 L 63.500 109.500 65.750 107.595 C 66.987 106.547, 68 105.535, 68 105.345 C 68 104.545, 67.195 105.136, 65.405 107.250 M 75.872 106.750 C 74.629 108.336, 74.664 108.371, 76.250 107.128 C 77.916 105.821, 78.445 105, 77.622 105 C 77.415 105, 76.627 105.787, 75.872 106.750 M 98.564 106.707 C 98.022 108.132, 98.136 108.247, 99.124 107.267 C 99.808 106.588, 100.115 105.781, 99.807 105.474 C 99.499 105.166, 98.940 105.721, 98.564 106.707 M 113.872 106.750 C 112.629 108.336, 112.664 108.371, 114.250 107.128 C 115.916 105.821, 116.445 105, 115.622 105 C 115.415 105, 114.627 105.787, 113.872 106.750 M 214.349 113 C 214.349 117.675, 214.522 119.587, 214.732 117.250 C 214.943 114.912, 214.943 111.087, 214.732 108.750 C 214.522 106.412, 214.349 108.325, 214.349 113 M 70.158 108 C 70.158 109.375, 70.385 109.938, 70.662 109.250 C 70.940 108.563, 70.940 107.438, 70.662 106.750 C 70.385 106.063, 70.158 106.625, 70.158 108 M 90.332 108.750 C 90.383 110.537, 90.836 112, 91.338 112 C 91.839 112, 91.969 113.405, 91.626 115.122 C 91.097 117.767, 91.222 118.061, 92.446 117.044 C 93.490 116.178, 93.643 115.191, 92.996 113.489 C 92.378 111.863, 92.472 110.982, 93.300 110.646 C 93.984 110.368, 93.777 110.124, 92.820 110.079 C 91.895 110.036, 90.936 108.987, 90.689 107.750 C 90.413 106.374, 90.274 106.762, 90.332 108.750 M 108.232 109 C 108.232 110.925, 108.438 111.713, 108.689 110.750 C 108.941 109.787, 108.941 108.213, 108.689 107.250 C 108.438 106.287, 108.232 107.075, 108.232 109 M 29.978 115.750 L 21.500 124.500 30.250 116.022 C 38.377 108.148, 39.456 107, 38.728 107 C 38.578 107, 34.641 110.938, 29.978 115.750 M 84.946 110.750 L 81.500 114.500 85.250 111.054 C 87.313 109.158, 89 107.471, 89 107.304 C 89 106.540, 88.154 107.260, 84.946 110.750 M 102.507 107.989 C 102.157 108.555, 102.558 108.723, 103.448 108.382 C 105.180 107.717, 105.497 107, 104.059 107 C 103.541 107, 102.843 107.445, 102.507 107.989 M 117.405 109.250 L 115.500 111.500 117.750 109.595 C 118.987 108.547, 120 107.535, 120 107.345 C 120 106.545, 119.195 107.136, 117.405 109.250 M 51.872 109.750 C 50.629 111.336, 50.664 111.371, 52.250 110.128 C 53.916 108.821, 54.445 108, 53.622 108 C 53.415 108, 52.627 108.787, 51.872 109.750 M 10.252 112.500 C 10.263 114.700, 10.468 115.482, 10.707 114.238 C 10.946 112.994, 10.937 111.194, 10.687 110.238 C 10.437 109.282, 10.241 110.300, 10.252 112.500 M 48 109.941 C 48 110.459, 48.445 111.157, 48.989 111.493 C 49.555 111.843, 49.723 111.442, 49.382 110.552 C 48.717 108.820, 48 108.503, 48 109.941 M 104.079 110.583 C 104.127 111.748, 104.364 111.985, 104.683 111.188 C 104.972 110.466, 104.936 109.603, 104.604 109.271 C 104.272 108.939, 104.036 109.529, 104.079 110.583 M 151.750 110.218 C 148.645 111.289, 148.066 113, 150.809 113 C 153.050 113, 156.632 110.494, 155.401 109.788 C 154.906 109.503, 153.262 109.697, 151.750 110.218 M 221.272 113 C 221.272 115.475, 221.467 116.487, 221.706 115.250 C 221.944 114.013, 221.944 111.987, 221.706 110.750 C 221.467 109.513, 221.272 110.525, 221.272 113 M 125.405 112.250 L 123.500 114.500 125.750 112.595 C 127.864 110.805, 128.455 110, 127.655 110 C 127.465 110, 126.453 111.013, 125.405 112.250 M 181 110.839 C 181 111.301, 182.109 112.184, 183.464 112.802 C 186.448 114.161, 187.930 112.568, 185.094 111.050 C 182.729 109.785, 181 109.696, 181 110.839 M 59.882 111.917 C 59.816 112.237, 59.816 112.838, 59.882 113.250 C 59.947 113.662, 59.598 114, 59.107 114 C 58.616 114, 57.912 114.787, 57.543 115.748 C 57.121 116.848, 58.010 116.407, 59.936 114.561 C 61.621 112.947, 63 111.560, 63 111.480 C 63 111.012, 59.979 111.436, 59.882 111.917 M 69.550 112.081 C 69.804 112.493, 69.492 113.003, 68.856 113.215 C 68.220 113.427, 67.880 114.098, 68.100 114.707 C 68.322 115.323, 69.243 114.819, 70.171 113.574 C 71.484 111.814, 71.547 111.333, 70.465 111.333 C 69.708 111.333, 69.296 111.670, 69.550 112.081 M 133.813 111.683 C 134.534 111.972, 135.397 111.936, 135.729 111.604 C 136.061 111.272, 135.471 111.036, 134.417 111.079 C 133.252 111.127, 133.015 111.364, 133.813 111.683 M 85.405 116.250 L 83.500 118.500 85.750 116.595 C 86.987 115.547, 88 114.535, 88 114.345 C 88 113.545, 87.195 114.136, 85.405 116.250 M 51.564 116.293 C 51.940 117.279, 52.499 117.834, 52.807 117.526 C 53.115 117.219, 52.808 116.412, 52.124 115.733 C 51.136 114.753, 51.022 114.868, 51.564 116.293 M 140.014 116.414 C 140.662 117.062, 141.338 117.062, 141.986 116.414 C 142.633 115.767, 142.295 115.429, 141 115.429 C 139.705 115.429, 139.367 115.767, 140.014 116.414 M 177 115.726 C 177 116.216, 177.638 117.491, 178.418 118.557 C 180.092 120.847, 181.905 119.658, 180.393 117.262 C 179.212 115.389, 177 114.388, 177 115.726 M 63.250 119.149 C 63.589 123.421, 66.354 125.130, 68.731 122.538 C 70.348 120.775, 70.351 120.722, 68.763 121.917 C 66.304 123.766, 64.230 122.625, 63.568 119.057 L 63 116 63.250 119.149 M 156.032 118.939 C 155.299 120.309, 155.322 121.081, 156.109 121.567 C 157.285 122.294, 158.959 120.363, 158.985 118.250 C 159.008 116.339, 157.198 116.762, 156.032 118.939 M 59.405 120.250 L 57.500 122.500 59.750 120.595 C 60.987 119.547, 62 118.535, 62 118.345 C 62 117.545, 61.195 118.136, 59.405 120.250 M 94.405 120.250 L 92.500 122.500 94.750 120.595 C 95.987 119.547, 97 118.535, 97 118.345 C 97 117.545, 96.195 118.136, 94.405 120.250 M 101.079 119.583 C 101.127 120.748, 101.364 120.985, 101.683 120.188 C 101.972 119.466, 101.936 118.603, 101.604 118.271 C 101.272 117.939, 101.036 118.529, 101.079 119.583 M 114 118.393 C 114 118.609, 114.698 119.054, 115.552 119.382 C 116.442 119.723, 116.843 119.555, 116.493 118.989 C 115.906 118.038, 114 117.583, 114 118.393 M 138.632 120.201 C 137.103 121.866, 137.013 122.394, 138.132 123.103 C 138.884 123.579, 139.050 123.983, 138.500 124 C 137.950 124.017, 138.151 124.442, 138.946 124.946 C 139.842 125.512, 141.131 125.465, 142.331 124.823 C 143.851 124.010, 143.981 123.606, 142.933 122.958 C 142.197 122.504, 141.124 122.399, 140.548 122.726 C 139.959 123.060, 139.865 122.922, 140.333 122.410 C 140.792 121.910, 141.579 121.444, 142.083 121.375 C 142.588 121.306, 143.280 121.194, 143.622 121.125 C 144.420 120.965, 141.965 117.972, 141.128 118.083 C 140.782 118.129, 139.659 119.082, 138.632 120.201 M 162.776 120.913 C 161.845 122.240, 161.343 123.746, 161.660 124.259 C 162.567 125.726, 165.234 122.452, 164.831 120.368 C 164.504 118.680, 164.306 118.732, 162.776 120.913 M 170.473 121.748 C 171.268 124.915, 171.751 125.582, 172.620 124.713 C 173.567 123.766, 172.109 119, 170.873 119 C 170.184 119, 170.037 120.010, 170.473 121.748 M 25.931 125.778 L 21.500 130.500 26.133 126.156 C 29.007 123.462, 31.023 122.228, 31.442 122.906 C 31.814 123.508, 33.104 123.948, 34.309 123.884 C 36.339 123.777, 36.353 123.732, 34.500 123.276 C 33.400 123.006, 32.019 122.396, 31.431 121.920 C 30.757 121.375, 28.726 122.799, 25.931 125.778 M 52.818 122.218 C 53.351 122.751, 54.623 123.011, 55.644 122.794 C 57.019 122.503, 56.767 122.251, 54.674 121.825 C 52.849 121.452, 52.192 121.592, 52.818 122.218 M 4.195 124.500 C 4.215 126.150, 4.439 126.704, 4.693 125.731 C 4.947 124.758, 4.930 123.408, 4.656 122.731 C 4.382 122.054, 4.175 122.850, 4.195 124.500 M 103.813 122.683 C 104.534 122.972, 105.397 122.936, 105.729 122.604 C 106.061 122.272, 105.471 122.036, 104.417 122.079 C 103.252 122.127, 103.015 122.364, 103.813 122.683 M 109 122.941 C 109 123.459, 109.445 124.157, 109.989 124.493 C 110.555 124.843, 110.723 124.442, 110.382 123.552 C 109.717 121.820, 109 121.503, 109 122.941 M 11.195 125.500 C 11.215 127.150, 11.439 127.704, 11.693 126.731 C 11.947 125.758, 11.930 124.408, 11.656 123.731 C 11.382 123.054, 11.175 123.850, 11.195 125.500 M 79.750 123.662 C 80.438 123.940, 81.563 123.940, 82.250 123.662 C 82.938 123.385, 82.375 123.158, 81 123.158 C 79.625 123.158, 79.063 123.385, 79.750 123.662 M 220.195 126.500 C 220.215 128.150, 220.439 128.704, 220.693 127.731 C 220.947 126.758, 220.930 125.408, 220.656 124.731 C 220.382 124.054, 220.175 124.850, 220.195 126.500 M 38 127.441 C 38 128.234, 38.408 129.134, 38.907 129.442 C 39.405 129.751, 39.578 129.102, 39.290 128.001 C 38.679 125.666, 38 125.371, 38 127.441 M 213.158 128 C 213.158 129.375, 213.385 129.938, 213.662 129.250 C 213.940 128.563, 213.940 127.438, 213.662 126.750 C 213.385 126.063, 213.158 126.625, 213.158 128 M 41.564 128.707 C 41.022 130.132, 41.136 130.247, 42.124 129.267 C 42.808 128.588, 43.115 127.781, 42.807 127.474 C 42.499 127.166, 41.940 127.721, 41.564 128.707 M 110.658 129.675 C 110.296 130.037, 110.059 131.721, 110.132 133.417 L 110.263 136.500 111 133 L 111.737 129.500 112.005 133.500 C 112.203 136.465, 112.391 136.853, 112.732 135 C 112.985 133.625, 113.696 131.825, 114.313 131 C 114.930 130.175, 115.040 129.834, 114.559 130.241 C 114.078 130.649, 113.151 130.540, 112.500 130 C 111.849 129.460, 111.020 129.313, 110.658 129.675 M 117.250 130.881 C 113.706 132.495, 112.731 136.299, 115.582 137.393 C 117.953 138.303, 118.697 138.097, 117 137 C 115.705 136.163, 115.729 136.029, 117.177 136.015 C 118.099 136.007, 119.059 136.787, 119.311 137.750 C 119.562 138.713, 119.820 137.367, 119.884 134.760 C 119.998 130.119, 120.042 130.055, 122 131.732 C 124.024 133.465, 124.857 136.648, 122.984 135.490 C 122.425 135.144, 122.269 134.373, 122.638 133.776 C 123.029 133.144, 122.846 132.977, 122.198 133.378 C 120.801 134.241, 121.848 137.215, 123.373 136.715 C 123.993 136.512, 124.650 135.065, 124.833 133.499 C 125.083 131.361, 125.391 131.006, 126.068 132.076 C 126.639 132.978, 126.975 133.063, 126.985 132.309 C 127.006 130.626, 125.269 129.756, 124.470 131.049 C 124.009 131.795, 123.290 131.707, 122.151 130.765 C 120.752 129.609, 120.004 129.626, 117.250 130.881 M 131.436 131.750 C 131.104 133.262, 130.688 134.988, 130.512 135.583 C 130.335 136.179, 130.783 136.667, 131.506 136.667 C 132.301 136.667, 132.966 135.150, 133.187 132.833 C 133.607 128.431, 132.335 127.644, 131.436 131.750 M 155.500 130 C 156.124 131.010, 154.131 131.296, 146.289 131.322 C 142.828 131.334, 142.362 131.545, 143.676 132.505 C 144.556 133.148, 145.024 134.310, 144.717 135.087 C 144.305 136.128, 144.137 136.039, 144.079 134.750 C 144.036 133.787, 143.523 133, 142.941 133 C 142.359 133, 142.141 133.419, 142.457 133.931 C 142.774 134.443, 142.607 135.125, 142.088 135.446 C 141.568 135.767, 140.998 135.023, 140.821 133.792 C 140.567 132.020, 139.795 131.519, 137.120 131.387 C 135.122 131.289, 134.261 131.543, 135.013 132.008 C 135.725 132.448, 136.044 133.723, 135.737 134.898 C 135.313 136.520, 135.647 137, 137.202 137 C 138.852 137, 139.103 136.547, 138.589 134.500 C 137.803 131.366, 138.752 131.218, 139.921 134.292 C 140.615 136.117, 141.478 136.547, 144.146 136.398 C 148.916 136.133, 148.818 136.174, 149.293 134.250 C 149.540 133.250, 149.634 133.436, 149.513 134.685 C 149.397 135.887, 149.677 137.462, 150.136 138.185 C 150.671 139.030, 150.975 138.218, 150.985 135.917 C 150.995 133.405, 151.449 132.333, 152.500 132.333 C 154.314 132.333, 154.499 134.604, 152.750 135.407 C 152.063 135.723, 152.510 135.731, 153.744 135.425 C 155.454 135.002, 155.850 135.227, 155.411 136.371 C 155.082 137.229, 154.119 137.646, 153.167 137.343 C 151.771 136.898, 151.738 136.980, 152.966 137.848 C 153.983 138.567, 154.827 138.559, 155.716 137.820 C 157.216 136.576, 157.478 132.586, 156 133.500 C 155.450 133.840, 155 133.641, 155 133.059 C 155 132.477, 155.900 132, 157 132 C 158.482 132, 159.035 132.712, 159.136 134.750 C 159.260 137.251, 159.313 137.287, 159.719 135.151 C 160.006 133.642, 159.436 132.123, 158.124 130.901 C 155.934 128.861, 154.489 128.365, 155.500 130 M 165.389 130.572 C 165.721 131.437, 165.474 133.115, 164.839 134.300 C 163.710 136.411, 163.669 136.415, 162.851 134.478 C 162.026 132.521, 162.020 132.521, 162.272 134.498 C 162.536 136.571, 165.491 137.239, 167.661 135.717 C 168.305 135.265, 169.115 135.377, 169.480 135.968 C 170.437 137.515, 172 136.213, 172 133.868 C 172 132.481, 172.545 131.964, 173.750 132.208 C 174.817 132.424, 175.469 133.428, 175.421 134.781 C 175.337 137.120, 177.384 137.806, 178.595 135.845 C 179.038 135.130, 178.870 134.962, 178.155 135.405 C 177.431 135.852, 177 135.382, 177 134.148 C 177 131.688, 179.484 131.912, 181.409 134.544 C 182.460 135.982, 184.110 136.495, 187.909 136.567 C 192.716 136.657, 193.006 136.518, 193.100 134.081 L 193.199 131.500 193.869 133.891 C 194.328 135.531, 195.377 136.371, 197.210 136.566 C 199.431 136.803, 199.951 136.399, 200.291 134.175 L 200.700 131.500 200.850 134.250 C 200.942 135.940, 201.569 137, 202.475 137 C 203.619 137, 203.746 136.461, 203.039 134.603 C 202.538 133.284, 202.355 131.978, 202.634 131.700 C 202.912 131.422, 201.538 131.239, 199.581 131.295 C 197.624 131.350, 196.518 131.702, 197.124 132.077 C 197.730 132.451, 197.838 132.964, 197.363 133.215 C 196.888 133.466, 197.063 133.535, 197.750 133.367 C 198.438 133.200, 199 133.627, 199 134.317 C 199 135.007, 198.100 135.571, 197 135.571 C 195.802 135.571, 195 134.905, 195 133.908 C 195 132.993, 194.239 131.627, 193.308 130.872 C 192.323 130.073, 191.914 129.996, 192.329 130.689 C 192.731 131.359, 192.270 132.327, 191.271 132.908 C 190.297 133.475, 190.063 133.953, 190.750 133.970 C 191.438 133.986, 192 134.505, 192 135.122 C 192 135.940, 191.641 135.947, 190.676 135.146 C 189.741 134.370, 189.040 134.360, 188.289 135.111 C 187.538 135.862, 187.020 135.841, 186.524 135.039 C 186.011 134.208, 185.391 134.252, 184.219 135.201 C 183.017 136.175, 182.804 136.187, 183.367 135.250 C 183.796 134.535, 183.619 134, 182.952 134 C 182.311 134, 182.014 133.406, 182.292 132.681 C 182.682 131.665, 181.116 131.351, 175.483 131.317 C 170.624 131.288, 168.241 131.647, 168.386 132.386 C 168.507 132.999, 168.157 132.488, 167.609 131.250 C 166.496 128.733, 164.443 128.107, 165.389 130.572 M 5.158 132 C 5.158 133.375, 5.385 133.938, 5.662 133.250 C 5.940 132.563, 5.940 131.438, 5.662 130.750 C 5.385 130.063, 5.158 130.625, 5.158 132 M 12.158 132 C 12.158 133.375, 12.385 133.938, 12.662 133.250 C 12.940 132.563, 12.940 131.438, 12.662 130.750 C 12.385 130.063, 12.158 130.625, 12.158 132 M 46.626 131.204 C 46.950 131.728, 47.617 133.359, 48.109 134.828 C 48.973 137.414, 48.988 137.400, 48.559 134.417 C 48.253 132.280, 48.530 131.333, 49.463 131.333 C 50.274 131.333, 50.574 131.963, 50.217 132.917 C 49.703 134.294, 49.848 134.319, 51.336 133.109 C 52.851 131.876, 52.978 131.933, 52.447 133.609 C 51.866 135.448, 51.882 135.448, 53.041 133.630 C 54.006 132.117, 54.399 132.021, 55.102 133.130 C 55.816 134.258, 55.975 134.235, 56 133 C 56.027 131.667, 56.138 131.667, 57 133 C 57.836 134.293, 57.971 134.267, 57.985 132.812 C 57.993 131.869, 57.228 131.120, 56.250 131.115 C 55.288 131.110, 52.596 130.914, 50.268 130.678 C 47.736 130.422, 46.273 130.633, 46.626 131.204 M 92.249 131.032 C 91.011 131.529, 89.245 131.648, 88.325 131.295 C 87.034 130.799, 86.807 131.055, 87.330 132.417 C 88.396 135.196, 86.903 136.439, 85.611 133.847 C 84.972 132.566, 83.561 131.358, 82.475 131.162 C 80.944 130.886, 80.763 131.080, 81.672 132.025 C 82.316 132.695, 82.606 133.864, 82.315 134.622 C 82.024 135.380, 82.172 136.037, 82.643 136.082 C 91.824 136.964, 91.720 136.986, 91.201 134.273 C 90.881 132.595, 91.084 131.934, 91.786 132.368 C 92.378 132.733, 93.149 132.568, 93.500 132 C 94.683 130.086, 95.945 132.015, 95.050 134.369 C 94.394 136.093, 94.528 136.667, 95.588 136.667 C 96.390 136.667, 97 135.684, 97 134.392 C 97 133.141, 97.369 131.890, 97.819 131.612 C 98.270 131.333, 98.514 132.544, 98.363 134.303 L 98.088 137.500 98.926 134.500 L 99.763 131.500 99.882 134.250 C 99.947 135.762, 100.457 137, 101.016 137 C 102.353 137, 101.883 131.024, 100.537 130.918 C 99.967 130.873, 98.375 130.676, 97 130.481 C 95.625 130.287, 93.487 130.534, 92.249 131.032 M 129.459 131.067 C 129.096 131.653, 129.014 132.348, 129.276 132.610 C 129.538 132.872, 130.019 132.392, 130.345 131.543 C 131.021 129.781, 130.445 129.471, 129.459 131.067 M 59.782 133.969 C 60.329 137.693, 63 138.085, 63 134.441 C 63 132.761, 63.397 132.127, 64.155 132.595 C 64.870 133.038, 65.038 132.870, 64.595 132.155 C 63.342 130.126, 62.004 130.913, 61.884 133.750 C 61.796 135.828, 61.651 136.012, 61.287 134.500 C 60.481 131.150, 59.308 130.735, 59.782 133.969 M 67.923 132.352 C 67.881 132.984, 67.696 134.290, 67.511 135.255 C 67.327 136.220, 67.593 136.751, 68.104 136.436 C 68.615 136.120, 68.774 135.443, 68.457 134.931 C 68.141 134.419, 68.359 134, 68.941 134 C 69.523 134, 70 134.600, 70 135.333 C 70 136.153, 71.175 136.667, 73.050 136.667 C 75.713 136.667, 76.063 136.351, 75.800 134.180 C 75.547 132.080, 74.917 131.656, 71.750 131.449 C 69.485 131.302, 67.970 131.659, 67.923 132.352 M 104.510 132.016 C 104.856 132.575, 105.557 132.774, 106.069 132.457 C 106.581 132.141, 107 132.546, 107 133.358 C 107 134.169, 106.539 135.062, 105.975 135.342 C 105.411 135.621, 105.524 135.736, 106.225 135.597 C 106.926 135.457, 107.644 134.366, 107.820 133.172 C 108.062 131.523, 107.627 131, 106.011 131 C 104.823 131, 104.160 131.449, 104.510 132.016 M 163.500 132 C 163.840 132.550, 164.316 133, 164.559 133 C 164.802 133, 165 132.550, 165 132 C 165 131.450, 164.523 131, 163.941 131 C 163.359 131, 163.160 131.450, 163.500 132 M 184.459 132.067 C 184.096 132.653, 184.070 133.403, 184.400 133.733 C 184.730 134.063, 185 133.722, 185 132.976 C 185 132.023, 185.374 132.130, 186.256 133.335 C 187.430 134.940, 187.624 134.920, 189.246 133.026 C 191.093 130.869, 190.220 130.180, 188.200 132.200 C 187.267 133.133, 187 133.133, 187 132.200 C 187 130.713, 185.349 130.626, 184.459 132.067 M 70.233 133.917 C 70.894 134.787, 71.561 135.688, 71.717 135.917 C 71.873 136.146, 72 135.433, 72 134.333 C 72 133.232, 71.333 132.333, 70.516 132.333 C 69.323 132.333, 69.267 132.644, 70.233 133.917 M 74.158 134 C 74.158 135.375, 74.385 135.938, 74.662 135.250 C 74.940 134.563, 74.940 133.438, 74.662 132.750 C 74.385 132.063, 74.158 132.625, 74.158 134 M 83.731 134.080 C 84.085 135.432, 84.538 135.886, 84.788 135.137 C 85.028 134.415, 84.750 133.350, 84.168 132.768 C 83.426 132.026, 83.296 132.417, 83.731 134.080 M 88.731 134.080 C 89.085 135.432, 89.538 135.886, 89.788 135.137 C 90.028 134.415, 89.750 133.350, 89.168 132.768 C 88.426 132.026, 88.296 132.417, 88.731 134.080 M 117.605 133.170 C 118.110 133.986, 117.750 134.120, 116.414 133.611 C 114.954 133.054, 114.776 133.159, 115.663 134.054 C 116.302 134.698, 117.315 134.923, 117.913 134.554 C 119.305 133.693, 119.324 132, 117.941 132 C 117.359 132, 117.207 132.526, 117.605 133.170 M 146.158 134 C 146.158 135.375, 146.385 135.938, 146.662 135.250 C 146.940 134.563, 146.940 133.438, 146.662 132.750 C 146.385 132.063, 146.158 132.625, 146.158 134 M 212.079 133.583 C 212.127 134.748, 212.364 134.985, 212.683 134.188 C 212.972 133.466, 212.936 132.603, 212.604 132.271 C 212.272 131.939, 212.036 132.529, 212.079 133.583 M 219.079 133.583 C 219.127 134.748, 219.364 134.985, 219.683 134.188 C 219.972 133.466, 219.936 132.603, 219.604 132.271 C 219.272 131.939, 219.036 132.529, 219.079 133.583 M 77 134.500 C 77 135.325, 77.450 136, 78 136 C 78.550 136, 79 135.325, 79 134.500 C 79 133.675, 78.550 133, 78 133 C 77.450 133, 77 133.675, 77 134.500 M 79.739 134.889 C 79.467 135.928, 79.633 137.391, 80.107 138.139 C 80.693 139.064, 80.974 138.460, 80.985 136.250 C 81.002 132.612, 80.483 132.045, 79.739 134.889 M 173 134.500 C 173 135.325, 173.450 136, 174 136 C 174.550 136, 175 135.325, 175 134.500 C 175 133.675, 174.550 133, 174 133 C 173.450 133, 173 133.675, 173 134.500 M 54.603 135.833 C 54.320 136.292, 54.723 136.667, 55.500 136.667 C 56.277 136.667, 56.680 136.292, 56.397 135.833 C 56.114 135.375, 55.710 135, 55.500 135 C 55.290 135, 54.886 135.375, 54.603 135.833 M 103.158 137 C 103.158 138.375, 103.385 138.938, 103.662 138.250 C 103.940 137.563, 103.940 136.438, 103.662 135.750 C 103.385 135.063, 103.158 135.625, 103.158 137 M 105 137.455 C 105 138.227, 107.976 138.847, 108.399 138.164 C 108.653 137.752, 107.993 137.350, 106.931 137.270 C 105.869 137.190, 105 137.273, 105 137.455 M 14.564 161.293 C 14.940 162.279, 15.499 162.834, 15.807 162.526 C 16.115 162.219, 15.808 161.412, 15.124 160.733 C 14.136 159.753, 14.022 159.868, 14.564 161.293 M 194.872 172.750 C 193.629 174.336, 193.664 174.371, 195.250 173.128 C 196.916 171.821, 197.445 171, 196.622 171 C 196.415 171, 195.627 171.787, 194.872 172.750 M 191.872 176.750 C 190.629 178.336, 190.664 178.371, 192.250 177.128 C 193.916 175.821, 194.445 175, 193.622 175 C 193.415 175, 192.627 175.787, 191.872 176.750 M 32 176.378 C 32 176.585, 32.788 177.373, 33.750 178.128 C 35.336 179.371, 35.371 179.336, 34.128 177.750 C 32.821 176.084, 32 175.555, 32 176.378 M 198.872 178.750 C 197.629 180.336, 197.664 180.371, 199.250 179.128 C 200.916 177.821, 201.445 177, 200.622 177 C 200.415 177, 199.627 177.787, 198.872 178.750 M 184 185.500 C 181.571 187.975, 179.809 190, 180.084 190 C 180.359 190, 182.571 187.975, 185 185.500 C 187.429 183.025, 189.191 181, 188.916 181 C 188.641 181, 186.429 183.025, 184 185.500 M 194.924 183.750 L 192.500 186.500 195.250 184.076 C 196.762 182.742, 198 181.505, 198 181.326 C 198 180.541, 197.190 181.180, 194.924 183.750 M 35.500 190 C 39.320 193.850, 42.671 197, 42.946 197 C 43.221 197, 40.320 193.850, 36.500 190 C 32.680 186.150, 29.329 183, 29.054 183 C 28.779 183, 31.680 186.150, 35.500 190 M 39.500 185 C 40.495 186.100, 41.535 187, 41.810 187 C 42.085 187, 41.495 186.100, 40.500 185 C 39.505 183.900, 38.465 183, 38.190 183 C 37.915 183, 38.505 183.900, 39.500 185 M 47.500 192 C 48.495 193.100, 49.535 194, 49.810 194 C 50.085 194, 49.495 193.100, 48.500 192 C 47.505 190.900, 46.465 190, 46.190 190 C 45.915 190, 46.505 190.900, 47.500 192 M 175.405 193.250 L 173.500 195.500 175.750 193.595 C 177.864 191.805, 178.455 191, 177.655 191 C 177.465 191, 176.453 192.012, 175.405 193.250 M 51 194.378 C 51 194.585, 51.788 195.373, 52.750 196.128 C 54.336 197.371, 54.371 197.336, 53.128 195.750 C 51.821 194.084, 51 193.555, 51 194.378 M 182.405 196.250 L 180.500 198.500 182.750 196.595 C 184.864 194.805, 185.455 194, 184.655 194 C 184.465 194, 183.453 195.012, 182.405 196.250 M 45 198.378 C 45 198.585, 45.788 199.373, 46.750 200.128 C 48.336 201.371, 48.371 201.336, 47.128 199.750 C 45.821 198.084, 45 197.555, 45 198.378 M 60 208.430 C 60 208.705, 60.900 209.411, 62 210 C 63.100 210.589, 64 210.845, 64 210.570 C 64 210.295, 63.100 209.589, 62 209 C 60.900 208.411, 60 208.155, 60 208.430 M 88.813 212.683 C 89.534 212.972, 90.397 212.936, 90.729 212.604 C 91.061 212.272, 90.471 212.036, 89.417 212.079 C 88.252 212.127, 88.015 212.364, 88.813 212.683 M 134.813 212.683 C 135.534 212.972, 136.397 212.936, 136.729 212.604 C 137.061 212.272, 136.471 212.036, 135.417 212.079 C 134.252 212.127, 134.015 212.364, 134.813 212.683 M 93.750 213.662 C 94.438 213.940, 95.563 213.940, 96.250 213.662 C 96.938 213.385, 96.375 213.158, 95 213.158 C 93.625 213.158, 93.063 213.385, 93.750 213.662 M 129.813 213.683 C 130.534 213.972, 131.397 213.936, 131.729 213.604 C 132.061 213.272, 131.471 213.036, 130.417 213.079 C 129.252 213.127, 129.015 213.364, 129.813 213.683 M 100.269 214.693 C 101.242 214.947, 102.592 214.930, 103.269 214.656 C 103.946 214.382, 103.150 214.175, 101.500 214.195 C 99.850 214.215, 99.296 214.439, 100.269 214.693 M 122.269 214.693 C 123.242 214.947, 124.592 214.930, 125.269 214.656 C 125.946 214.382, 125.150 214.175, 123.500 214.195 C 121.850 214.215, 121.296 214.439, 122.269 214.693 M 88.813 219.683 C 89.534 219.972, 90.397 219.936, 90.729 219.604 C 91.061 219.272, 90.471 219.036, 89.417 219.079 C 88.252 219.127, 88.015 219.364, 88.813 219.683 M 93.750 220.662 C 94.438 220.940, 95.563 220.940, 96.250 220.662 C 96.938 220.385, 96.375 220.158, 95 220.158 C 93.625 220.158, 93.063 220.385, 93.750 220.662 M 128.750 220.662 C 129.438 220.940, 130.563 220.940, 131.250 220.662 C 131.938 220.385, 131.375 220.158, 130 220.158 C 128.625 220.158, 128.063 220.385, 128.750 220.662 M 102.250 221.689 C 103.213 221.941, 104.787 221.941, 105.750 221.689 C 106.713 221.438, 105.925 221.232, 104 221.232 C 102.075 221.232, 101.287 221.438, 102.250 221.689 M 119.250 221.689 C 120.213 221.941, 121.787 221.941, 122.750 221.689 C 123.713 221.438, 122.925 221.232, 121 221.232 C 119.075 221.232, 118.287 221.438, 119.250 221.689" stroke="none" fill="#ddc078" fill-rule="evenodd"/><path d="M 93.016 6.534 C 44.591 15.294, 7.870 56.754, 4.364 106.627 C 2.759 129.457, 10.452 156.841, 23.684 175.397 C 28.467 182.104, 40.104 194.094, 47 199.419 C 77.925 223.301, 121.220 228.300, 157.192 212.142 C 186.279 199.076, 209.382 171.707, 217.665 140.500 C 220.027 131.601, 220.324 128.629, 220.365 113.500 C 220.405 98.915, 220.087 95.253, 218.124 87.722 C 207.279 46.101, 175.388 15.434, 134.228 7.047 C 122.452 4.647, 104.672 4.426, 93.016 6.534 M 95.821 12.427 C 42.912 21.817, 6.011 69.637, 11.029 122.309 C 15.137 165.418, 44.966 200.705, 87 212.180 C 94.445 214.212, 97.672 214.492, 113 214.433 C 133.323 214.356, 139.995 212.972, 155.532 205.612 C 177.625 195.147, 193.491 179.735, 204.036 158.500 C 211.442 143.584, 214.203 131.803, 214.347 114.500 C 214.545 90.650, 208.399 71.113, 195.064 53.198 C 180.313 33.381, 159.786 19.603, 136.500 13.890 C 125.995 11.313, 106.123 10.598, 95.821 12.427 M 34.250 111.923 C 22.581 124.184, 19.069 129, 21.797 129 C 22.235 129, 24.341 127.211, 26.475 125.025 C 29.443 121.987, 30.666 121.308, 31.672 122.143 C 32.961 123.212, 35.773 122.984, 39.233 121.528 C 40.783 120.876, 40.851 121.128, 39.881 123.912 C 38.723 127.232, 39.351 130.519, 40.953 129.529 C 41.484 129.201, 42.676 126.531, 43.601 123.596 C 45.072 118.930, 45.825 117.998, 49.605 116.161 L 53.927 114.061 52.923 116.703 C 50.659 122.656, 55.405 123.938, 60.702 118.804 L 64 115.608 64 118.835 C 64 123.431, 66.769 124.243, 69.443 120.431 C 70.575 118.819, 73.849 115.073, 76.720 112.106 C 81.612 107.050, 82.494 104.951, 79.691 105.036 C 77.992 105.087, 73.513 108.936, 70.408 113.012 C 68.125 116.009, 67.854 116.148, 68.480 114 C 69.798 109.479, 70.234 105, 69.359 104.977 C 68.887 104.964, 65.874 107.777, 62.665 111.227 L 56.830 117.500 59.915 111.878 C 65.338 101.996, 63.848 100.570, 55.341 107.500 C 47.780 113.659, 46.641 113.498, 49.493 106.670 C 50.958 103.165, 50.232 97.999, 48.275 98 C 47.849 98.001, 41.538 104.266, 34.250 111.923 M 99.978 100.042 C 99.341 101.231, 99.062 103.130, 99.358 104.261 C 99.708 105.600, 98.658 108.183, 96.349 111.661 C 92.013 118.193, 90.843 119.036, 91.640 115.050 C 92.462 110.942, 90.718 111.097, 86.565 115.500 C 83.726 118.510, 80 120.185, 80 118.450 C 80 116.686, 83.419 111.838, 86.699 108.952 C 90.349 105.740, 90.513 105.695, 90.820 107.804 C 91.189 110.344, 93.501 110.742, 94.393 108.418 C 95.463 105.629, 95.043 101.954, 93.590 101.396 C 88.389 99.400, 73.740 116.172, 76.640 120.804 C 77.930 122.864, 82.177 123.511, 84.890 122.059 C 86.208 121.354, 87.088 121.333, 87.498 121.997 C 89.376 125.035, 95.753 120.179, 100.175 112.344 C 101.834 109.405, 103.598 107, 104.095 107 C 105.454 107, 105.186 110.311, 103.500 114.346 C 102.675 116.320, 102 118.909, 102 120.099 C 102 122.012, 102.404 122.196, 105.499 121.694 C 108.294 121.240, 109.206 121.516, 110.034 123.063 C 111.552 125.899, 113.612 125.506, 124.073 120.384 C 130.302 117.335, 135.007 115.698, 137.942 115.560 C 142.688 115.336, 143.997 114.072, 141.568 112.056 C 139.256 110.138, 133.112 111.632, 122.927 116.589 C 113.055 121.393, 113 121.413, 113 120.105 C 113 119.612, 115.362 117.987, 118.250 116.493 C 126.794 112.072, 129.650 108.726, 128.566 104.407 C 128.062 102.399, 127.339 102, 124.209 102 C 119.627 102, 114.338 106.003, 111.463 111.648 C 110.383 113.766, 109.050 115.831, 108.500 116.235 C 106.661 117.585, 105.919 117.020, 106.965 115.066 C 108.456 112.279, 108.238 105.381, 106.608 103.751 C 105.842 102.985, 105.050 101.496, 104.846 100.441 C 104.322 97.719, 101.351 97.476, 99.978 100.042 M 39.079 112.225 C 32.409 119.262, 32.379 120.378, 38.947 117.027 C 41.896 115.523, 43.226 113.974, 44.551 110.505 C 45.507 108.003, 46.111 105.841, 45.894 105.702 C 45.677 105.563, 42.610 108.498, 39.079 112.225 M 121.396 106.429 C 118.414 107.728, 112.916 114, 114.760 114 C 116.589 114, 125 107.762, 125 106.406 C 125 104.744, 125.272 104.742, 121.396 106.429 M 47.415 130.828 C 47.855 131.559, 48.543 133.359, 48.944 134.828 L 49.672 137.500 50.162 134.258 C 50.431 132.474, 50.434 131.233, 50.168 131.499 C 49.902 131.765, 48.994 131.424, 48.150 130.741 C 46.909 129.737, 46.768 129.753, 47.415 130.828 M 111.252 133.500 C 111.263 135.700, 111.468 136.482, 111.707 135.238 C 111.946 133.994, 111.937 132.194, 111.687 131.238 C 111.437 130.282, 111.241 131.300, 111.252 133.500 M 120.136 133.760 C 120.221 136.082, 120.437 136.647, 120.706 135.250 C 120.944 134.012, 121.584 133, 122.129 133 C 122.673 133, 122.859 133.419, 122.543 133.931 C 122.226 134.443, 122.425 135.144, 122.984 135.490 C 124.857 136.648, 124.024 133.465, 122 131.732 C 120.049 130.062, 120.003 130.112, 120.136 133.760 M 133.136 133.679 C 133.238 136.527, 133.397 136.864, 133.761 135 C 134.217 132.667, 134.303 132.633, 135.054 134.500 C 135.776 136.292, 135.867 136.311, 135.930 134.679 C 135.968 133.677, 135.325 132.182, 134.500 131.357 C 133.167 130.024, 133.015 130.282, 133.136 133.679 M 93.718 131.683 C 93.262 132.453, 94.574 137, 95.251 137 C 95.799 137, 95.374 132.041, 94.774 131.441 C 94.458 131.125, 93.983 131.234, 93.718 131.683 M 125.232 134 C 125.232 135.925, 125.438 136.713, 125.689 135.750 C 125.941 134.787, 125.941 133.213, 125.689 132.250 C 125.438 131.287, 125.232 132.075, 125.232 134 M 130 133.441 C 130 134.784, 130.369 136.110, 130.819 136.388 C 131.270 136.667, 131.443 135.568, 131.206 133.947 C 130.681 130.373, 130 130.087, 130 133.441 M 51.336 133.567 C 50.452 135.871, 52.543 137.624, 54.369 136.109 C 55.357 135.289, 56.029 135.238, 56.470 135.951 C 57.813 138.125, 60.001 137.028, 59.864 134.250 C 59.732 131.588, 59.713 131.579, 59.266 133.968 L 58.804 136.436 57.437 133.968 C 56.614 132.482, 56.051 132.097, 56.020 133 C 55.975 134.333, 55.862 134.333, 55 133 C 54.220 131.793, 54.028 131.951, 54.015 133.809 C 54.006 135.189, 53.570 135.853, 52.932 135.458 C 52.344 135.095, 52.105 134.168, 52.400 133.399 C 52.696 132.629, 52.712 132, 52.437 132 C 52.162 132, 51.667 132.705, 51.336 133.567 M 61.158 134 C 61.158 135.375, 61.385 135.938, 61.662 135.250 C 61.940 134.563, 61.940 133.438, 61.662 132.750 C 61.385 132.063, 61.158 132.625, 61.158 134 M 67.336 134.120 C 67.527 135.371, 68.204 136.568, 68.842 136.781 C 70.496 137.332, 70.273 135.131, 68.495 133.352 C 67.154 132.011, 67.027 132.095, 67.336 134.120 M 71.336 134 C 71.542 137.147, 74.405 137.357, 74.750 134.250 C 74.962 132.343, 74.913 132.305, 74.430 134 C 73.671 136.666, 72.255 136.538, 71.656 133.750 C 71.230 131.767, 71.192 131.797, 71.336 134 M 76 135.490 C 76 138.885, 76.055 138.933, 78 137.268 C 79.100 136.326, 80 134.756, 80 133.778 C 80 132.667, 79.250 132, 78 132 C 76.382 132, 76 132.667, 76 135.490 M 81.136 135.240 C 81.003 138.888, 81.049 138.938, 83 137.268 C 85.127 135.446, 85.584 133.479, 84.093 132.558 C 83.595 132.249, 83.422 132.898, 83.710 133.999 C 83.998 135.099, 83.762 136, 83.186 136 C 82.610 136, 81.944 134.988, 81.706 133.750 C 81.437 132.353, 81.221 132.918, 81.136 135.240 M 86.336 133.922 C 86.426 135.254, 87.062 136.529, 87.749 136.755 C 89.413 137.303, 90.555 134.155, 89.189 132.789 C 88.420 132.020, 88.272 132.325, 88.673 133.856 C 88.982 135.040, 88.764 136, 88.186 136 C 87.610 136, 86.922 134.988, 86.656 133.750 C 86.209 131.669, 86.185 131.682, 86.336 133.922 M 91.158 134 C 91.158 135.375, 91.385 135.938, 91.662 135.250 C 91.940 134.563, 91.940 133.438, 91.662 132.750 C 91.385 132.063, 91.158 132.625, 91.158 134 M 97.195 134.500 C 97.215 136.150, 97.439 136.704, 97.693 135.731 C 97.947 134.758, 97.930 133.408, 97.656 132.731 C 97.382 132.054, 97.175 132.850, 97.195 134.500 M 99.195 134.500 C 99.215 136.150, 99.439 136.704, 99.693 135.731 C 99.947 134.758, 99.930 133.408, 99.656 132.731 C 99.382 132.054, 99.175 132.850, 99.195 134.500 M 101.755 134.500 C 102.018 135.875, 102.406 137, 102.617 137 C 102.827 137, 103 135.875, 103 134.500 C 103 133.125, 102.612 132, 102.139 132 C 101.665 132, 101.492 133.125, 101.755 134.500 M 104.079 135.323 C 104.016 138.378, 104.335 139.082, 105.667 138.823 C 108.011 138.369, 108.551 136.017, 106.333 135.921 C 105.282 135.876, 105.033 135.627, 105.750 135.338 C 106.438 135.060, 106.993 134.083, 106.985 133.167 C 106.973 131.844, 106.791 131.781, 106.106 132.863 C 105.377 134.014, 105.158 134.014, 104.700 132.863 C 104.402 132.113, 104.122 133.220, 104.079 135.323 M 113.195 134.500 C 113.215 136.150, 113.439 136.704, 113.693 135.731 C 113.947 134.758, 113.930 133.408, 113.656 132.731 C 113.382 132.054, 113.175 132.850, 113.195 134.500 M 117.605 133.170 C 118.110 133.986, 117.750 134.120, 116.414 133.611 C 114.954 133.054, 114.776 133.159, 115.663 134.054 C 116.302 134.698, 117.315 134.923, 117.913 134.554 C 119.305 133.693, 119.324 132, 117.941 132 C 117.359 132, 117.207 132.526, 117.605 133.170 M 141.169 134.161 C 141.351 135.447, 142.175 136.500, 143 136.500 C 145.169 136.500, 144.870 132.599, 142.669 132.175 C 141.249 131.901, 140.912 132.347, 141.169 134.161 M 146.336 134 C 146.542 137.147, 149.405 137.357, 149.750 134.250 C 149.962 132.343, 149.913 132.305, 149.430 134 C 148.671 136.666, 147.255 136.538, 146.656 133.750 C 146.230 131.767, 146.192 131.797, 146.336 134 M 151.079 135.250 C 150.991 139.416, 153.154 140.449, 154.947 137.098 C 155.825 135.458, 155.658 135.253, 153.733 135.609 C 152.505 135.836, 152.063 135.755, 152.750 135.428 C 153.438 135.101, 153.993 134.083, 153.985 133.167 C 153.973 131.844, 153.791 131.781, 153.106 132.863 C 152.377 134.014, 152.158 134.014, 151.700 132.863 C 151.402 132.113, 151.122 133.188, 151.079 135.250 M 155 132.969 C 155 133.501, 155.639 133.692, 156.420 133.392 C 157.341 133.039, 157.997 133.666, 158.284 135.174 C 158.682 137.263, 158.742 137.219, 158.864 134.750 C 158.969 132.621, 158.548 132, 157 132 C 155.900 132, 155 132.436, 155 132.969 M 163.315 133.922 C 163.417 135.254, 164.175 136.525, 165 136.748 C 165.991 137.015, 166.115 136.872, 165.366 136.326 C 164.742 135.872, 163.984 134.600, 163.681 133.500 C 163.247 131.923, 163.170 132.012, 163.315 133.922 M 172 135.539 L 172 139.078 174.128 137.095 C 176.428 134.953, 176.082 132, 173.531 132 C 172.445 132, 172 133.028, 172 135.539 M 177.158 134 C 177.158 135.375, 177.385 135.938, 177.662 135.250 C 177.940 134.563, 177.940 133.438, 177.662 132.750 C 177.385 132.063, 177.158 132.625, 177.158 134 M 179.670 133.766 C 180.398 136.652, 181.852 137.554, 183.337 136.041 C 184.221 135.141, 184.217 134.934, 183.321 135.179 C 182.672 135.355, 181.457 134.600, 180.620 133.500 C 179.127 131.537, 179.110 131.542, 179.670 133.766 M 182 133 C 182 133.550, 182.450 134, 183 134 C 183.550 134, 184 133.550, 184 133 C 184 132.450, 183.550 132, 183 132 C 182.450 132, 182 132.450, 182 133 M 185 132.750 C 185 133.373, 185.498 134.190, 186.107 134.566 C 186.878 135.043, 186.803 135.510, 185.857 136.110 C 184.949 136.685, 184.894 136.974, 185.691 136.985 C 187.628 137.010, 187.921 135.612, 186.411 133.548 C 185.635 132.486, 185 132.127, 185 132.750 M 189 132.941 C 189 133.459, 189.498 134.190, 190.107 134.566 C 190.878 135.043, 190.803 135.510, 189.857 136.110 C 188.949 136.685, 188.894 136.974, 189.691 136.985 C 191.485 137.008, 192.430 134.884, 191.015 134.009 C 190.049 133.412, 190.076 133.122, 191.137 132.700 C 192.087 132.322, 191.970 132.134, 190.750 132.079 C 189.787 132.036, 189 132.423, 189 132.941 M 193.195 134.500 C 193.215 136.150, 193.439 136.704, 193.693 135.731 C 193.947 134.758, 193.930 133.408, 193.656 132.731 C 193.382 132.054, 193.175 132.850, 193.195 134.500 M 195.169 134.161 C 195.351 135.447, 196.175 136.500, 197 136.500 C 199.169 136.500, 198.870 132.599, 196.669 132.175 C 195.249 131.901, 194.912 132.347, 195.169 134.161 M 200.195 134.500 C 200.215 136.150, 200.439 136.704, 200.693 135.731 C 200.947 134.758, 200.930 133.408, 200.656 132.731 C 200.382 132.054, 200.175 132.850, 200.195 134.500 M 202.710 134 C 202.998 135.100, 203.406 136, 203.617 136 C 203.827 136, 204 135.100, 204 134 C 204 132.900, 203.592 132, 203.094 132 C 202.595 132, 202.423 132.900, 202.710 134 M 77 134.500 C 77 135.325, 77.450 136, 78 136 C 78.550 136, 79 135.325, 79 134.500 C 79 133.675, 78.550 133, 78 133 C 77.450 133, 77 133.675, 77 134.500 M 142 134.500 C 142 135.325, 142.450 136, 143 136 C 143.550 136, 144 135.325, 144 134.500 C 144 133.675, 143.550 133, 143 133 C 142.450 133, 142 133.675, 142 134.500 M 173 134.500 C 173 135.325, 173.450 136, 174 136 C 174.550 136, 175 135.325, 175 134.500 C 175 133.675, 174.550 133, 174 133 C 173.450 133, 173 133.675, 173 134.500 M 196 134.500 C 196 135.325, 196.450 136, 197 136 C 197.550 136, 198 135.325, 198 134.500 C 198 133.675, 197.550 133, 197 133 C 196.450 133, 196 133.675, 196 134.500 M 168 136.167 C 168 136.625, 168.423 137, 168.941 137 C 169.459 137, 170.114 136.625, 170.397 136.167 C 170.680 135.708, 170.257 135.333, 169.456 135.333 C 168.655 135.333, 168 135.708, 168 136.167 M 115.667 136.667 C 114.399 137.934, 115.008 139, 117 139 C 118.111 139, 119 138.333, 119 137.500 C 119 135.978, 116.885 135.449, 115.667 136.667" stroke="none" fill="#1c7bb9" fill-rule="evenodd"/></svg>